<?xml version="1.0" encoding="UTF-8"?>
<svg id="Layer_1" data-name="Layer 1" xmlns="http://www.w3.org/2000/svg" viewBox="0 0 501 501">
  <defs>
    <style>
      .cls-1 {
        fill: #1877f1;
      }
    </style>
  </defs>
  <path class="cls-1" d="M491,232.74v38.13c-1.37,.57-.88,1.83-.99,2.82-1.22,10.62-2.66,21.2-5.22,31.59-16.45,66.92-54.5,117.86-113.82,152.76-24.9,14.65-51.86,23.89-80.55,28.37-.12-.83-.28-1.43-.28-2.04-.01-53.62,.01-107.24-.09-160.86,0-3.19,1.33-3.4,3.85-3.39,15.19,.08,30.37,.04,45.56,.04,6.6,0,6.42-.03,7.38-6.58,2.83-19.25,5.67-38.49,8.87-57.68,.66-3.97-.18-4.66-3.9-4.63-19.21,.16-38.43,.07-57.65,.07-2.15,0-4.17,.51-4.12-3.09,.22-14.41-.24-28.83,.22-43.23,.67-20.74,11.2-32,31.81-34.81,11.1-1.52,22.28-.44,33.42-.65,2.46-.04,3.53-.47,3.51-3.27-.12-17.51-.12-35.02,0-52.53,.02-2.46-.96-3.33-3.1-3.6-22.43-2.84-44.89-5.8-67.51-2.84-15.9,2.08-30.55,7.65-42.98,18.1-20.78,17.48-28.67,40.88-29.56,67.01-.62,18.27-.2,36.57-.05,54.85,.03,3.23-.78,4.16-4.08,4.13-17.51-.17-35.02-.02-52.53-.14-2.85-.02-4.01,.5-3.99,3.74,.15,20.45,.14,40.91,0,61.37-.02,3.07,.88,3.86,3.89,3.84,17.2-.14,34.4,.06,51.6-.16,3.94-.05,5.16,.72,5.14,4.98-.17,52.22-.11,104.45-.13,156.67,0,1.5,.36,3.08-.5,4.65-31.57-5.01-61.02-15.86-88.03-32.92C42.34,399.87,.65,303.59,19.39,205.12,37.96,107.52,119.11,30.11,217.64,15.85c5.56-.8,11.3-.61,16.68-2.59h37.2c.47,1.13,1.52,.84,2.39,.92,36.04,3.21,69.86,13.63,100.66,32.61,63.49,39.12,101.64,95.51,113.81,169.28,.92,5.55,.63,11.3,2.62,16.67Z"/>
</svg>