<?xml version="1.0" encoding="UTF-8"?>
<svg id="Layer_1" data-name="Layer 1" xmlns="http://www.w3.org/2000/svg" viewBox="0 0 501 501">
  <defs>
    <style>
      .cls-1 {
        fill: #feb339;
      }

      .cls-2 {
        fill: #fe3100;
      }

      .cls-3 {
        fill: #fd0030;
      }

      .cls-4 {
        fill: #e8006a;
      }

      .cls-5 {
        fill: #e1008b;
      }

      .cls-6 {
        fill: #fe6700;
      }

      .cls-7 {
        fill: #fe1100;
      }

      .cls-8 {
        fill: #fd0104;
      }

      .cls-9 {
        fill: #fe9700;
      }

      .cls-10 {
        fill: #fe010d;
      }

      .cls-11 {
        fill: #fecb6e;
      }

      .cls-12 {
        fill: #d800b2;
      }

      .cls-13 {
        fill: #fe7c22;
      }

      .cls-14 {
        fill: #fea100;
      }

      .cls-15 {
        fill: #e3017f;
      }

      .cls-16 {
        fill: #f8011f;
      }

      .cls-17 {
        fill: #dd009c;
      }

      .cls-18 {
        fill: #f60125;
      }

      .cls-19 {
        fill: #fe1e01;
      }

      .cls-20 {
        fill: #fd0134;
      }

      .cls-21 {
        fill: #fe0600;
      }

      .cls-22 {
        fill: #fe7800;
      }

      .cls-23 {
        fill: #fe4800;
      }

      .cls-24 {
        fill: #ef7fc7;
      }

      .cls-25 {
        fill: #fe1a00;
      }

      .cls-26 {
        fill: #f03478;
      }

      .cls-27 {
        fill: #e50f84;
      }

      .cls-28 {
        fill: #ed0150;
      }

      .cls-29 {
        fill: #fe4f00;
      }

      .cls-30 {
        fill: #fe7a11;
      }

      .cls-31 {
        fill: #e8008c;
      }

      .cls-32 {
        fill: #fe7f00;
      }

      .cls-33 {
        fill: #f9b2c8;
      }

      .cls-34 {
        fill: #fe9b00;
      }

      .cls-35 {
        fill: #fe5b00;
      }

      .cls-36 {
        fill: #fea927;
      }

      .cls-37 {
        fill: #eb015a;
      }

      .cls-38 {
        fill: #feb892;
      }

      .cls-39 {
        fill: #fe1900;
      }

      .cls-40 {
        fill: #d900ad;
      }

      .cls-41 {
        fill: #e7006b;
      }

      .cls-42 {
        fill: #df0092;
      }

      .cls-43 {
        fill: #f1013d;
      }

      .cls-44 {
        fill: #e90064;
      }

      .cls-45 {
        fill: #fc0044;
      }

      .cls-46 {
        fill: #fe0112;
      }

      .cls-47 {
        fill: #fe010c;
      }

      .cls-48 {
        fill: #fb010c;
      }

      .cls-49 {
        fill: #fe6c00;
      }

      .cls-50 {
        fill: #fe2400;
      }

      .cls-51 {
        fill: #eb116a;
      }

      .cls-52 {
        fill: #fe1e00;
      }

      .cls-53 {
        fill: #fe5e00;
      }

      .cls-54 {
        fill: #f10175;
      }

      .cls-55 {
        fill: #ef0147;
      }

      .cls-56 {
        fill: #e50076;
      }

      .cls-57 {
        fill: #fe3000;
      }

      .cls-58 {
        fill: #fd0124;
      }

      .cls-59 {
        fill: #fe4b00;
      }

      .cls-60 {
        fill: #e3007f;
      }

      .cls-61 {
        fill: #fe2500;
      }

      .cls-62 {
        fill: #fe1500;
      }

      .cls-63 {
        fill: #e736a1;
      }

      .cls-64 {
        fill: #fe4d00;
      }

      .cls-65 {
        fill: #fe1600;
      }

      .cls-66 {
        fill: #febb00;
      }

      .cls-67 {
        fill: #ee236f;
      }

      .cls-68 {
        fill: #fec500;
      }

      .cls-69 {
        fill: #ef0145;
      }

      .cls-70 {
        fill: #e944a9;
      }

      .cls-71 {
        fill: #fe0f00;
      }

      .cls-72 {
        fill: #feccb2;
      }

      .cls-73 {
        fill: #fe4700;
      }

      .cls-74 {
        fill: #e50194;
      }

      .cls-75 {
        fill: #feb100;
      }

      .cls-76 {
        fill: #fea500;
      }

      .cls-77 {
        fill: #ed1c6c;
      }

      .cls-78 {
        fill: #ec0155;
      }

      .cls-79 {
        fill: #f30134;
      }

      .cls-80 {
        fill: #fe2b00;
      }

      .cls-81 {
        fill: #fe6b00;
      }

      .cls-82 {
        fill: #f24982;
      }

      .cls-83 {
        fill: #fd0119;
      }

      .cls-84 {
        fill: #fe8a45;
      }

      .cls-85 {
        fill: #fe2100;
      }

      .cls-86 {
        fill: #e62294;
      }

      .cls-87 {
        fill: #dc00a3;
      }

      .cls-88 {
        fill: #fe0113;
      }

      .cls-89 {
        fill: #f5b2de;
      }

      .cls-90 {
        fill: #f5b7e0;
      }

      .cls-91 {
        fill: #e61186;
      }

      .cls-92 {
        fill: #e90065;
      }

      .cls-93 {
        fill: #ef007a;
      }

      .cls-94 {
        fill: #f70120;
      }

      .cls-95 {
        fill: #feb200;
      }

      .cls-96 {
        fill: #fea700;
      }

      .cls-97 {
        fill: #fe6300;
      }

      .cls-98 {
        fill: #f4012f;
      }

      .cls-99 {
        fill: #fc0209;
      }

      .cls-100 {
        fill: #e947ab;
      }

      .cls-101 {
        fill: #fe7900;
      }

      .cls-102 {
        fill: #fe780a;
      }

      .cls-103 {
        fill: #fe5800;
      }

      .cls-104 {
        fill: #fe7000;
      }

      .cls-105 {
        fill: #fe9a10;
      }

      .cls-106 {
        fill: #fe0201;
      }

      .cls-107 {
        fill: #fe0106;
      }

      .cls-108 {
        fill: #e20086;
      }

      .cls-109 {
        fill: #fe2200;
      }

      .cls-110 {
        fill: #fe0c01;
      }

      .cls-111 {
        fill: #de0098;
      }

      .cls-112 {
        fill: #db00a8;
      }

      .cls-113 {
        fill: #ee014b;
      }

      .cls-114 {
        fill: #fe9711;
      }

      .cls-115 {
        fill: #fe4200;
      }

      .cls-116 {
        fill: #fe2a00;
      }

      .cls-117 {
        fill: #ec0156;
      }

      .cls-118 {
        fill: #fd0135;
      }

      .cls-119 {
        fill: #fecb00;
      }

      .cls-120 {
        fill: #feac00;
      }

      .cls-121 {
        fill: #fe5900;
      }

      .cls-122 {
        fill: #fe0a00;
      }

      .cls-123 {
        fill: #ee014a;
      }

      .cls-124 {
        fill: #eb0084;
      }

      .cls-125 {
        fill: #fe3c00;
      }

      .cls-126 {
        fill: #ea0d6a;
      }

      .cls-127 {
        fill: #fede9f;
      }

      .cls-128 {
        fill: #fe8b00;
      }

      .cls-129 {
        fill: #fe7c00;
      }

      .cls-130 {
        fill: #fe9c00;
      }

      .cls-131 {
        fill: #fedfa1;
      }

      .cls-132 {
        fill: #fd003e;
      }

      .cls-133 {
        fill: #fe1400;
      }

      .cls-134 {
        fill: #fe8a44;
      }

      .cls-135 {
        fill: #e0008f;
      }

      .cls-136 {
        fill: #fc0053;
      }

      .cls-137 {
        fill: #e90061;
      }

      .cls-138 {
        fill: #f8021b;
      }

      .cls-139 {
        fill: #fd002c;
      }

      .cls-140 {
        fill: #fe7b22;
      }

      .cls-141 {
        fill: #feb944;
      }

      .cls-142 {
        fill: #fd0125;
      }

      .cls-143 {
        fill: #fc004f;
      }

      .cls-144 {
        fill: #e4007b;
      }

      .cls-145 {
        fill: #fb0110;
      }

      .cls-146 {
        fill: #de0198;
      }

      .cls-147 {
        fill: #fe5300;
      }

      .cls-148 {
        fill: #fe0700;
      }

      .cls-149 {
        fill: #fec100;
      }

      .cls-150 {
        fill: #fd0038;
      }

      .cls-151 {
        fill: #fd0106;
      }

      .cls-152 {
        fill: #fe8100;
      }

      .cls-153 {
        fill: #fe8600;
      }

      .cls-154 {
        fill: #ea005e;
      }

      .cls-155 {
        fill: #eb5eb7;
      }

      .cls-156 {
        fill: #f90117;
      }

      .cls-157 {
        fill: #fd011f;
      }

      .cls-158 {
        fill: #e7329f;
      }

      .cls-159 {
        fill: #febd4c;
      }

      .cls-160 {
        fill: #fe7100;
      }

      .cls-161 {
        fill: #fec1a1;
      }

      .cls-162 {
        fill: #fea622;
      }

      .cls-163 {
        fill: #f8011c;
      }

      .cls-164 {
        fill: #fe0b00;
      }

      .cls-165 {
        fill: #fe4e00;
      }

      .cls-166 {
        fill: #f67fa5;
      }

      .cls-167 {
        fill: #fe8334;
      }

      .cls-168 {
        fill: #fd012a;
      }

      .cls-169 {
        fill: #feb700;
      }

      .cls-170 {
        fill: #fea26e;
      }

      .cls-171 {
        fill: #fe6000;
      }

      .cls-172 {
        fill: #febc00;
      }

      .cls-173 {
        fill: #df0094;
      }

      .cls-174 {
        fill: #e30082;
      }

      .cls-175 {
        fill: #fe5f00;
      }

      .cls-176 {
        fill: #e60071;
      }

      .cls-177 {
        fill: #f00143;
      }

      .cls-178 {
        fill: #fe2600;
      }

      .cls-179 {
        fill: #d801b6;
      }

      .cls-180 {
        fill: #fea800;
      }

      .cls-181 {
        fill: #dd009e;
      }

      .cls-182 {
        fill: #fe9500;
      }

      .cls-183 {
        fill: #f00141;
      }

      .cls-184 {
        fill: #fe7400;
      }

      .cls-185 {
        fill: #fe3600;
      }

      .cls-186 {
        fill: #fe9000;
      }

      .cls-187 {
        fill: #fe1f00;
      }

      .cls-188 {
        fill: #fe8232;
      }

      .cls-189 {
        fill: #f5012a;
      }

      .cls-190 {
        fill: #e90088;
      }

      .cls-191 {
        fill: #fed100;
      }

      .cls-192 {
        fill: #feaf32;
      }

      .cls-193 {
        fill: #f20139;
      }

      .cls-194 {
        fill: #fd0120;
      }

      .cls-195 {
        fill: #fc004a;
      }

      .cls-196 {
        fill: #ef2e75;
      }

      .cls-197 {
        fill: #f60126;
      }

      .cls-198 {
        fill: #f57ba3;
      }

      .cls-199 {
        fill: #f14480;
      }

      .cls-200 {
        fill: #fe6500;
      }

      .cls-201 {
        fill: #fe3700;
      }

      .cls-202 {
        fill: #e7008f;
      }

      .cls-203 {
        fill: #fe5a00;
      }

      .cls-204 {
        fill: #fe8d07;
      }

      .cls-205 {
        fill: #dd009b;
      }

      .cls-206 {
        fill: #ed007e;
      }

      .cls-207 {
        fill: #fe8500;
      }

      .cls-208 {
        fill: #ee7ac4;
      }

      .cls-209 {
        fill: #fe0c00;
      }

      .cls-210 {
        fill: #e62193;
      }
    </style>
  </defs>
  <path class="cls-4" d="M487.65,256.27v11.12c-.42,.48-.62,1.22-1.44,1.24-2.12-.44-3.31-2.14-4.7-3.53-9.68-9.64-19.42-19.22-28.93-29.02-2.67-2.75-6.45-4.21-8.44-7.66-.63-3.96-.68-7.93,.01-11.88,1.65-2.92,3.36-1.16,4.83,.09,2.46,2.1,4.64,4.51,6.93,6.8,9.27,9.26,18.52,18.54,27.81,27.77,1.54,1.53,2.92,3.16,3.94,5.08Z"/>
  <path class="cls-41" d="M238.46,16.34h12.97c12.69,12.29,25.07,24.88,37.48,37.44,1.46,1.47,4.39,3.18,1.44,5.98-3.67,.8-7.35,.64-11.03,.14-3.06-1.19-4.36-4.21-6.52-6.34-10.73-10.56-21.36-21.22-31.94-31.94-1.36-1.38-3.8-2.54-2.4-5.29Z"/>
  <path class="cls-176" d="M487.65,256.27c-12.71-12.55-25.41-25.12-38.14-37.65-1.28-1.26-2.26-3.02-4.39-3.11-2.53-3.74-1.32-7.8-1.03-11.78,.93-2.33,2.47-1.85,4.06-.8,1.29,.85,2.3,2.03,3.4,3.11,11.31,11.09,22.1,22.72,33.85,33.35,2.57,2.32,1,5.25,2.26,7.61v9.26Z"/>
  <path class="cls-113" d="M487.65,326.68v8.34c-3.44,1.5-5.1-1.31-6.94-3.12-10.33-10.16-20.56-20.42-30.75-30.73-1.93-1.96-4.43-3.37-5.78-5.91-.67-3.69-.7-7.38-.01-11.07,.57-1.6,1.73-1.48,2.99-.97,1.46,.59,2.57,1.67,3.66,2.76,12.09,12.04,24.12,24.13,36.22,36.16,.49,1.48-.4,3.15,.62,4.56Z"/>
  <path class="cls-203" d="M13.35,188.65v-6.48c.98-1.32,.21-2.87,.55-4.28,.18-.44,.51-.65,.98-.68,2.2,.49,3.86,1.9,5.38,3.41,11.47,11.36,22.87,22.81,34.27,34.24,.98,.98,1.94,1.98,2.34,3.38,.5,3.11,.64,6.22-.08,9.32-1.08,2.15-2.56,1.07-3.85,.36-1.62-.9-2.82-2.35-4.13-3.64-11.5-11.28-22.56-23-34.36-33.99-.45-.49-.65-1.15-1.1-1.64Z"/>
  <path class="cls-135" d="M487.65,178.46v1.85c-.98,1.94-.22,4.02-.51,6.02-2.96,1.92-4.42-.73-5.96-2.22-7.81-7.58-15.44-15.35-23.15-23.04-3.36-3.36-6.78-6.67-10.06-10.11-1.72-1.81-3.65-3.22-5.96-4.14-1.39-4.18-1.88-8.47-1.48-12.86,1.13-2.12,2.59-1.01,3.88-.29,1.62,.91,2.83,2.36,4.14,3.66,12.79,12.66,25.33,25.59,38.29,38.07,.66,.92-.08,2.21,.81,3.06Z"/>
  <path class="cls-28" d="M182.87,16.34h.93c2.77,1.02,5.65,.21,8.46,.48,1.83,.22,2.98,1.5,4.18,2.7,10.9,10.9,21.81,21.79,32.69,32.71,1.42,1.42,2.74,2.93,3.6,4.77,.5,1.06,.72,2.07-.64,2.71-3.39,.86-6.81,.66-10.22,.19-3.05-1.19-4.35-4.22-6.51-6.34-10.29-10.11-20.46-20.35-30.63-30.59-1.47-1.48-3.45-2.72-3.27-5.26,.2-.73,.91-.95,1.41-1.37Z"/>
  <path class="cls-120" d="M14.44,339.68c-.27-.68,0-1.67-1.09-1.88v-5.56c.33-.31,.72-.49,1.16-.55,2.85,.31,4.54,2.42,6.37,4.24,11.41,11.37,22.81,22.76,34.17,34.18,1.64,1.65,3.33,3.15,5.63,3.81,2.16,4.53,2.54,9.45,3.21,14.31-1.59,2.09-3,.64-4.22-.38-2.25-1.86-4.19-4.07-6.27-6.11-12.4-12.16-24.28-24.85-37.08-36.6-1.77-1.63-1.22-3.66-1.87-5.46Z"/>
  <path class="cls-42" d="M334.8,16.34c.31,.36,.62,.72,.93,1.08,14.58,13.88,28.62,28.3,42.74,42.63,1.34,1.36,3.96,3.52,.1,5.37-4.53-.17-8.96-.85-13.16-2.66-.06-2.46-1.44-4.16-3.12-5.82-11.54-11.46-23.07-22.95-34.49-34.54-1.38-1.4-4.13-2.73-1.87-5.54,2.02-.3,4.13,.46,6.08-.52,.93,0,1.85,0,2.78,0Z"/>
  <path class="cls-147" d="M55.87,217.37c-11.13-11.01-22.29-22-33.39-33.04-2.51-2.5-5.03-4.94-8.09-6.75-1.42-1.67,.22-3.91-1.05-5.6v-3.71c2.3-3.81,.11-8.25,1.73-12.16,.18,.14,.36,.28,.54,.42,.17,.26,.42,.56,.38,.83-1.24,7.53,3.75,11.74,8.43,16.26,10.53,10.17,20.55,20.88,31.25,30.88,.58,.54,.99,1.18,1.24,1.93,.32,3.71,1.43,7.5-1.04,10.94Z"/>
  <path class="cls-32" d="M13.35,259.05v-15.75c2.53,.07,1.72,2.47,2.55,3.72,1.82,2.71,4.29,4.81,6.59,7.04,11,10.7,21.27,22.13,32.87,32.22,.7,.61,1.22,1.38,1.49,2.29,.54,3.14,.67,6.27-.07,9.39-.53,1.34-1.49,1.33-2.62,.82-1.56-.71-2.91-1.71-4.11-2.91-12.26-12.25-24.64-24.37-36.7-36.82Z"/>
  <path class="cls-176" d="M291.26,58.88c-.85-2.02-2.27-3.61-3.81-5.15-11.02-10.97-22.01-21.96-32.97-32.98-1.26-1.27-3.02-2.27-3.05-4.41h11.12c12.91,12.5,25.49,25.32,38.15,38.07,1.43,1.44,3.97,3.27,.57,5.46-3.41,.4-6.87,1.35-10-.99Z"/>
  <path class="cls-56" d="M487.65,247.01c-.47-4.77-4-7.37-7.1-10.42-10.44-10.25-20.72-20.67-31.09-30.99-1.27-1.26-2.27-3.02-4.41-3.06-2.22-3.14-1.32-6.58-.95-9.96,.76-2.01,2.12-1.9,3.68-1,.94,.54,1.69,1.32,2.45,2.08,12.27,12.24,24.5,24.52,36.79,36.74,.5,1.48-.39,3.16,.63,4.57v12.04Z"/>
  <path class="cls-207" d="M13.35,259.05c2.15,.04,3.14,1.79,4.41,3.05,10.04,9.98,20.06,19.99,30.03,30.03,2.5,2.52,5.05,4.93,8.12,6.75,2.28,3.11,1.34,6.53,.99,9.89-.47,1.54-1.52,1.73-2.88,1.22-1.18-.44-2.15-1.19-3.02-2.06-12.41-12.31-24.78-24.66-37.09-37.07-.41-1.76,.48-3.65-.56-5.33v-6.48Z"/>
  <path class="cls-96" d="M59.79,373.67c-2.47,2.43-3.2-.64-4.16-1.58-12.05-11.86-23.98-23.84-35.92-35.82-1.64-1.65-3.29-3.23-5.51-4.05-1-1.73,.32-3.82-.85-5.53v-4.63c3.42-1.49,5.07,1.31,6.9,3.11,10.92,10.76,21.76,21.6,32.53,32.52,1.81,1.84,3.56,3.08,6.21,2.55,1.13,4.43,2.79,8.83,.81,13.44Z"/>
  <path class="cls-28" d="M486.61,322.05c-2.12-.12-3.1-1.87-4.37-3.13-10.68-10.63-21.34-21.28-31.97-31.96-1.53-1.54-3.12-2.95-5.14-3.81-2.35-3.12-1.38-6.57-1.03-9.96,.96-2.33,2.51-1.81,4.05-.74,1.64,1.14,2.94,2.68,4.36,4.08,11.26,11.08,22.17,22.51,33.65,33.36,.46,.43,.79,.92,.99,1.52,.33,2.3-.55,4.69,.51,6.94v2.78c-.35,.31-.43,.92-1.05,.93Z"/>
  <path class="cls-123" d="M181.95,17.4c.12,2.12,1.88,3.1,3.14,4.37,10.63,10.68,21.28,21.34,31.96,31.97,1.54,1.53,2.95,3.12,3.8,5.14-3.1,2.34-6.55,1.33-9.93,1.06-2.73-1.09-4.04-3.72-5.98-5.65-10.32-10.19-20.58-20.45-30.77-30.77-1.73-1.75-4.3-3.29-3.27-6.51,1.47-.58,3.16,.37,4.56-.67h.93c1.68,1.27,3.91-.38,5.56,1.05Z"/>
  <path class="cls-147" d="M348.01,488.92c-4.27,1.62-9.04-.61-13.21,1.73h-6.48c-.63-.68-1.69-.36-2.35-.98-11.79-12.39-24.17-24.19-36.09-36.45-1.47-1.51-4.59-3.02-1.62-5.93,2.89-.8,5.79-.68,8.69-.14,2.93,1.36,4.32,4.3,6.5,6.44,9.79,9.62,19.56,19.25,29.09,29.14,3.34,3.47,6.77,5.69,11.7,4.97,.9-.13,1.85,.02,2.74,.34,.45,.18,.79,.48,1.04,.89Z"/>
  <path class="cls-92" d="M238.46,16.34c.04,2.15,1.79,3.14,3.05,4.41,10.96,11.02,21.95,22.01,32.97,32.97,1.54,1.54,2.95,3.12,3.81,5.15-2.76,2.28-5.92,1.27-8.97,1.1-1.08-.25-1.99-.81-2.72-1.63-11.3-12.85-24.02-24.31-35.88-36.6-1.16-1.2-2.61-2.23-2.73-4.13,.33-1.05,1.59-.56,2.13-1.26h8.34Z"/>
  <path class="cls-56" d="M302.38,58.96c-.04-2.15-1.8-3.15-3.07-4.43-11.22-11.27-22.48-22.49-33.7-33.76-1.27-1.27-3.03-2.27-3.07-4.43h8.34c.86,.89,2.15,.15,3.07,.81,11.9,12.37,24.27,24.27,36.24,36.56,1.5,1.54,4.88,3.23,1.34,6.12-3.12,.44-6.28,1.25-9.15-.89Z"/>
  <path class="cls-69" d="M445.1,296.11c2.14,.07,3.13,1.83,4.4,3.1,10.7,10.65,21.37,21.33,32.03,32.01,1.75,1.75,3.45,3.55,6.12,3.8v3.71c-2.29,3.86-.16,8.34-1.73,12.3-1.07-6.21-5.98-9.62-10.02-13.62-10.18-10.07-20.04-20.46-30.51-30.22-.58-.54-1.01-1.15-1.27-1.9-.36-3.13-1.27-6.32,.98-9.16Z"/>
  <path class="cls-101" d="M55.87,287.77c-7.54-4.96-13.04-12.11-19.49-18.24-5.46-5.2-10.62-10.71-16.05-15.94-3.08-2.97-6.09-5.88-6.99-10.28v-4.63c.34-.31,.73-.53,1.17-.66,1.92-.17,3.11,1.11,4.31,2.28,12.42,12.06,24.18,24.79,37,36.45,.58,.53,.9,1.23,1.12,1.99,.23,3.08,1.23,6.26-1.07,9.04Z"/>
  <path class="cls-14" d="M57.89,359.86c-.39,5.04-2.4,1.97-3.72,.65-9.42-9.33-18.78-18.73-28.15-28.11-2.4-2.4-4.82-4.78-7.19-7.2-1.54-1.57-3.18-2.91-5.48-3.15v-1.85c1.02-2.14,.22-4.41,.49-6.6,.03-.46,.22-.84,.56-1.14,2.65-.64,3.9,1.46,5.36,2.91,10.51,10.42,20.95,20.92,31.43,31.37,1.18,1.18,2.26,2.51,3.58,3.25,1.78-.31,.66-3.87,3.43-2.56,1.34,4.18,1.76,8.34-.31,12.42Z"/>
  <path class="cls-5" d="M443.1,147.16c2.5-2.29,3.2,.74,4.17,1.69,11.42,11.23,22.72,22.58,34.03,33.92,1.64,1.64,3.24,3.31,5.56,3.97,.29-.38,.56-.38,.8,.05v1.85c-1.02,2.12-.22,4.38-.49,6.55-.01,.46-.22,.83-.58,1.11-2.85,.19-4.4-1.9-6.1-3.59-9.58-9.5-19.1-19.07-28.64-28.61q-4.54-4.54-9.07-3.67c-1.31-4.47-1.81-8.92,.33-13.29Z"/>
  <path class="cls-14" d="M186.58,490.65h-1.85c-.5-.44-1.15-.66-1.64-1.11-11.75-12.54-24.23-24.36-36.26-36.61-1.18-1.2-2.48-2.31-3.43-3.72-1.37-2.03-.92-3.45,1.54-4.08,3.93-.16,7.9-1,11.71,.73-1.66,3.38,.67,5.21,2.72,7.26,10.25,10.19,20.51,20.37,30.62,30.71,1.58,1.61,4.6,3.05,2.64,6.32-2.01,.29-4.1-.46-6.05,.51Z"/>
  <path class="cls-120" d="M167.13,490.65c-.53-1.43-1.92-.63-2.82-1.09-1.59-.42-3.12-.65-4.45-2.03-13.22-13.73-26.89-27.02-40.3-40.56-.65-.65-1.32-1.29-1.86-2.05-1.72-2.42-1.36-3.99,1.82-4.39,3.9,.71,7.92,.98,11.51,2.9-.71,2.52,.52,4.15,2.26,5.87,11.8,11.67,23.53,23.41,35.21,35.2,1.6,1.61,4.18,3.11,2.33,6.14h-3.71Z"/>
  <path class="cls-173" d="M486.59,175.68c-2.11-.13-3.09-1.88-4.36-3.14-11.86-11.81-23.7-23.65-35.52-35.5-1.64-1.64-3.23-3.29-5.57-3.92-3.23-2.86-3-6.77-3.21-10.54,1.23-2.02,2.61-.99,3.87-.11,1.39,.97,2.49,2.29,3.7,3.48,13.45,13.14,26.28,26.91,40.15,39.62,.38,.55,.65,1.15,.91,1.75,.47,.89-.39,2.3,1.09,2.8v.93c-1.21,1.35,.32,3.33-1.07,4.63Z"/>
  <path class="cls-153" d="M243.09,490.65h-9.26c-.49-.45-1.15-.64-1.69-1.02-10.93-12.05-22.88-23.09-34.23-34.73-1.18-1.21-2.48-2.31-3.45-3.69-.91-1.3-1.74-2.69,.19-3.9,2.6-.78,5.21-.7,7.82-.11,7.11,6.74,13.88,13.83,20.84,20.72,5.67,5.61,11.33,11.23,16.9,16.94,1.54,1.57,3.67,3,2.89,5.79Z"/>
  <path class="cls-129" d="M260.69,490.65h-8.34c-1.58-.94-3.08-1.94-4.4-3.27-10.49-10.55-21.03-21.05-31.54-31.57-1.63-1.64-3.07-3.43-4.29-5.39-.64-1.02-1.47-2.16,.18-3.1,2.6-.79,5.2-.71,7.82-.1,11.77,11.48,23.26,23.25,34.94,34.83,1.53,1.52,3.13,2.97,4.52,4.61,.95,1.11,2.36,2.21,1.11,3.98Z"/>
  <path class="cls-53" d="M315.35,490.65h-1.85c-1.67-1.02-3.53-.18-5.26-.53-2.91-1.61-4.52-4.54-6.8-6.79-10.1-9.92-20.1-19.93-30.02-30.04-1.49-1.52-4.53-2.99-1.79-5.96,2.61-.82,5.24-.72,7.87-.14,6.68,6.29,13,12.95,19.53,19.4,6,5.93,11.96,11.89,17.88,17.9,1.34,1.37,3.22,2.55,2.69,4.97-.47,.92-1.66,.48-2.24,1.18Z"/>
  <path class="cls-121" d="M317.2,489.61c-.11-2.12-1.87-3.11-3.14-4.38-10.87-10.93-21.79-21.8-32.66-32.72-1.27-1.27-3.03-2.26-3.11-4.39,3.09-2.1,6.18-2.1,9.26,0,.09,2.13,1.84,3.12,3.11,4.39,10.86,10.92,21.77,21.78,32.63,32.7,1.27,1.27,3.02,2.25,3.17,4.36-.95,1.33-2.69-.03-3.71,1.09h-1.85c-1.02-1.09-2.71,.19-3.7-1.04Z"/>
  <path class="cls-135" d="M325.59,17.14c-.11,2.19,1.66,3.19,2.92,4.46,12.05,12.1,24.16,24.13,36.15,36.3,.84,.85,4.62,2.19,.46,3.96-2.58,1.67-5.21,1.42-7.85,.19-.95-2.47-2.61-4.41-4.48-6.27-10.79-10.72-21.56-21.46-32.26-32.28-1.72-1.74-4.27-3.28-3.25-6.49,.66-.21,1.33-.18,2.01-.18,1.77-.24,3.62,.52,5.32-.48h.93c.31,.16,.42,.33,.33,.52-.09,.19-.18,.28-.28,.28Z"/>
  <path class="cls-152" d="M211.59,448.11c11.06,13.86,24.65,25.27,36.78,38.1,1.36,1.44,2.66,2.96,3.98,4.44h-9.26c-.84-2.23-2.45-3.86-4.09-5.5-10.91-10.87-21.8-21.75-32.66-32.67-1.26-1.27-3.02-2.26-3.08-4.4,2.79-1.97,5.57-2.01,8.34,.04Z"/>
  <path class="cls-55" d="M170.83,17.44c.92,1.98,2.32,3.57,3.86,5.11,10.68,10.62,21.33,21.28,31.95,31.95,1.26,1.27,3.02,2.25,3.1,4.38-2.23,2.01-4.81,1.37-7.36,.98-2.6-1.23-3.96-3.77-5.9-5.69-9.4-9.26-18.86-18.47-27.94-28.03-4.07-4.28-8.1-7.81-14.42-7.2-.43-.19-.76-.49-1-.88,4.23-1.6,8.96,.61,13.1-1.71h2.78c.43,.68,1.55,.19,1.85,1.09Z"/>
  <path class="cls-22" d="M260.69,490.65c-.04-2.15-1.79-3.15-3.06-4.42-11.2-11.26-22.46-22.46-33.66-33.72-1.27-1.27-3.03-2.26-3.11-4.4,1.93-1.85,4.21-1.35,6.47-.96,2.88,1.62,4.59,4.46,6.88,6.71,10.19,10.04,20.27,20.18,30.36,30.32,1.48,1.49,3.38,2.8,3.27,5.3-.13,.44-.35,.83-.66,1.17h-6.48Z"/>
  <path class="cls-76" d="M144.15,446.1c-2.32,2.53,.78,3.21,1.71,4.16,11.53,11.74,23.21,23.32,34.82,34.98,1.26,1.27,3.02,2.25,3.12,4.38-1.33,1.31-3.28-.16-4.64,1.03h-1.85c-.31-.32-.62-.64-.93-.94-5.19-6.7-11.64-12.2-17.52-18.23-7.07-7.25-14.36-14.28-21.41-21.55-1.41-1.45-4.03-3.13-.89-5.51,2.72-.3,5.67-1.6,7.59,1.69Z"/>
  <path class="cls-180" d="M135.63,445.35c.09,2.13,1.85,3.11,3.11,4.38,11.49,11.55,23.02,23.06,34.55,34.57,1.64,1.64,3.3,3.23,3.97,5.55-1.74,.9-3.8-.34-5.51,.8h-.93c.38-2.58-1.55-3.86-3.05-5.35-12.41-12.42-24.85-24.81-37.2-37.29-1.08-1.1-4.87-3.22,.5-3.71,1.84-1.07,3.27-.35,4.54,1.05Z"/>
  <path class="cls-102" d="M14.27,238.67c-.31,0-.62,0-.93,0v-26.87c.56-.29,1.02-.18,1.4,.33,1.35,2.83,.73,5.84,.83,8.78,0,1.6,.1,3.21,.03,4.81-.05,1.62,.07,3.25-.02,4.88-.07,2.75,.65,5.62-1.31,8.06Z"/>
  <path class="cls-126" d="M486.73,268.32c.31-.31,.62-.62,.93-.93v25.01c-.55,.29-1.01,.19-1.4-.3-.3-.46-.5-.96-.62-1.5-.43-3.53-.23-7.07-.23-10.62,.26-3.91-1.18-8.01,1.32-11.67Z"/>
  <path class="cls-114" d="M232.9,489.72c.31,.31,.62,.62,.93,.93h-25.01c-.29-.56-.18-1.02,.32-1.39,1.74-1.05,3.7-.69,5.58-.89,3.02-.04,6.05-.03,9.07,.02,3.11-.05,6.29-.55,9.11,1.32Z"/>
  <path class="cls-30" d="M267.17,490.65v-.93c2.16-1.8,4.74-1.27,7.22-1.31,2.67-.09,5.35-.06,8.02,.02,1.28-.02,2.56-.02,3.84,.04,1.24,0,2.48,0,3.72,.13,.75,.08,1.45,.31,2.07,.74,.41,.39,.45,.83,.13,1.3h-25.01Z"/>
  <path class="cls-91" d="M273.66,17.27c-1.02-.04-2.11,.15-2.78-.93h22.23c.3,.52,.22,.97-.24,1.35-.92,.6-1.96,.74-3.02,.81-2.14,.16-4.27,.04-6.41,.09-3.3-.13-6.76,.88-9.78-1.31Z"/>
  <path class="cls-51" d="M230.12,16.34c-.4,.74-1.09,.91-1.85,.93-2.13,1.98-4.78,1.09-7.23,1.34-2.71,.1-5.41-.05-8.12-.05-1.63,.03-3.25,.02-4.73-.83-.5-.38-.6-.84-.3-1.39h22.23Z"/>
  <path class="cls-27" d="M487.65,234.97c-1.54-1.3-.7-3.07-.93-4.63-2.08-2.68-1.16-5.81-1.37-8.78,.23-2.37-.11-4.77,.3-7.13,.11-.52,.32-1.01,.62-1.45,.39-.46,.85-.54,1.38-.24v22.23Z"/>
  <path class="cls-204" d="M13.35,265.54c1.68,1.62,.63,3.7,.93,5.56,1.97,2.62,1.23,5.57,1.08,8.46-.11,.53-.32,1.02-.62,1.47-.39,.47-.85,.56-1.39,.26v-15.75Z"/>
  <path class="cls-105" d="M13.35,281.29c.31,0,.62,0,.92,0,2.26,2.98,1.11,6.42,1.31,9.68-.07,1.64,.07,3.32-.83,4.81-.37,.51-.84,.62-1.41,.33v-14.82Z"/>
  <path class="cls-199" d="M487.65,318.34c-1.93-2.25-.43-4.97-1-7.41-.84-1.1-1.01-2.27-.31-3.51,.38-.44,.81-.51,1.3-.2v11.12Z"/>
  <path class="cls-82" d="M193.08,17.34c-3.06-.63-6.37,.98-9.28-1h10.19c.23,.21,.33,.43,.3,.67-.03,.25-.08,.38-.15,.38-.37,.27-.72,.24-1.06-.06Z"/>
  <path class="cls-210" d="M487.65,212.73c-.3,0-.61,0-.91-.01-1.84-2.01-1.18-4.46-1.21-6.79,.08-.8,.29-1.55,.75-2.22,.39-.46,.85-.54,1.37-.24v9.26Z"/>
  <path class="cls-36" d="M13.35,296.11c.3,0,.61,.01,.91,.02,1.69,1.73,1.19,3.92,1.28,6-.06,1.06-.22,2.09-.82,3.01-.38,.46-.84,.54-1.36,.24v-9.26Z"/>
  <path class="cls-84" d="M13.35,188.65c.35,.31,.69,.62,1.04,.93,1.52,2.28,1.45,4.65,.37,7.07-.37,.52-.84,.63-1.41,.34,0-2.78,0-5.56,0-8.34Z"/>
  <path class="cls-140" d="M14.26,211.79c-.3,0-.61,.01-.91,.01v-8.34c.52-.3,.96-.22,1.34,.24,1.13,2.21,.92,4.51,.47,6.84-.18,.5-.48,.92-.9,1.25Z"/>
  <path class="cls-141" d="M186.58,490.65c1.92-1.85,4.34-.48,6.47-.99,.57-.51,1.2-.51,1.85-.17,.23,.26,.31,.51,.24,.77-.07,.26-.14,.39-.21,.39h-8.34Z"/>
  <path class="cls-159" d="M14.18,312.77c-.33,2.47,1.08,5.14-.84,7.43v-7.41c.27-.34,.55-.34,.84-.02Z"/>
  <path class="cls-1" d="M14.18,312.77c-.28,.01-.56,.02-.84,.02v-7.41c.3,0,.59,.01,.89,.02,1.94,2.44,1.73,4.92,.13,7.42l-.18-.04Z"/>
  <path class="cls-90" d="M486.59,175.68c.6-1.49-.77-3.43,1.07-4.63v7.41c-1.32-.55-.68-1.86-1.07-2.78Z"/>
  <path class="cls-77" d="M486.74,292.41c.3,0,.61,0,.91,0v7.41c-.57,.29-1.04,.17-1.41-.35-.99-2.43-1.32-4.82,.5-7.05Z"/>
  <path class="cls-100" d="M486.81,196.08c.32-2.47-1.05-5.14,.84-7.43v7.41c-.27,.35-.56,.34-.84,.02Z"/>
  <path class="cls-63" d="M486.81,196.08c.28-.01,.56-.02,.84-.02v7.41c-.3,0-.6-.01-.89-.02-1.85-2.45-1.83-4.93-.12-7.44l.17,.07Z"/>
  <path class="cls-67" d="M207.89,16.34c0,.3,0,.6-.01,.91-1.18,1.29-2.75,1.19-4.28,1.21-1.04-.02-2.03-.2-2.92-.79-.44-.39-.51-.83-.2-1.33h7.41Z"/>
  <path class="cls-192" d="M194.92,490.65c0-.29-.01-.58-.02-.87,2.22-1.89,4.62-1.54,7.07-.56,.53,.37,.65,.85,.36,1.43h-7.41Z"/>
  <path class="cls-158" d="M299.6,16.34h7.41c.3,.53,.21,.98-.27,1.36-2.29,1.08-4.58,1.08-6.87,0-.48-.38-.57-.83-.27-1.37Z"/>
  <path class="cls-196" d="M486.76,299.83c.3,0,.6-.01,.89-.02v7.41c-.29,.01-.57,.02-.86,.03-1.6-1.51-1.32-3.43-1.18-5.33,.14-.83,.45-1.57,1.14-2.09Z"/>
  <path class="cls-188" d="M306.08,490.65h-7.41c-.14-.55,.02-1,.46-1.35,2.24-1.07,4.49-1.06,6.73,0,.46,.38,.54,.83,.23,1.35Z"/>
  <path class="cls-134" d="M306.08,490.65c0-.29,.01-.57,.02-.86,.55-.65,1.17-.57,1.81-.15,1.84,.47,3.97-.75,5.58,1h-7.41Z"/>
  <path class="cls-167" d="M14.23,203.45c-.29,0-.59,.01-.88,.02v-6.48c.28,0,.57-.01,.85-.02,.93,.72,1.14,1.75,1.23,2.83,.02,1.35-.05,2.68-1.2,3.65Z"/>
  <path class="cls-33" d="M170.83,17.44c-.7-.23-1.66,0-1.85-1.09h6.48c-1.21,1.78-3.16,.44-4.63,1.09Z"/>
  <path class="cls-89" d="M325.59,17.14c-.02-.27-.03-.53-.05-.8h6.48c-1.94,1.94-4.29,.51-6.44,.8Z"/>
  <path class="cls-70" d="M307.03,17.21c-.01-.29-.02-.58-.02-.87h6.48c.31,.48,.25,.92-.18,1.3-1.63,.95-3.35,.89-5.11,.46-.49-.18-.88-.48-1.18-.89Z"/>
  <path class="cls-86" d="M299.6,16.34c0,.29,.02,.59,.02,.88-.34,.43-.76,.73-1.27,.91-1.86,.39-3.69,.61-5.23-.88,0-.3-.01-.61-.01-.91h6.48Z"/>
  <path class="cls-26" d="M200.48,16.34c0,.3,0,.6-.01,.89-2.18,1.74-4.35,1.69-6.5-.05,.01-.28,.02-.56,.03-.84h6.48Z"/>
  <path class="cls-162" d="M202.33,490.65c0-.29-.01-.59-.02-.88,.34-.43,.76-.73,1.27-.91,1.86-.39,3.69-.61,5.23,.88,0,.31,0,.61,0,.92h-6.48Z"/>
  <path class="cls-208" d="M487.65,186.8c-.26-.05-.53-.06-.8-.05,.25-2.15-1.09-4.49,.8-6.43v6.48Z"/>
  <path class="cls-166" d="M181.95,17.4c-1.8-.61-3.99,.79-5.56-1.05,2.16,0,4.32,0,6.48,0-.31,.35-.62,.7-.93,1.05Z"/>
  <path class="cls-13" d="M298.67,489.78c0,.29,0,.58,0,.87h-6.48c0-.3,0-.61,.01-.91,1.84-1.62,3.85-1.38,5.92-.54,.18,.19,.37,.38,.55,.57Z"/>
  <path class="cls-24" d="M324.61,16.34c-1.62,1.78-3.66,.64-5.51,.81-.33-.16-.45-.33-.35-.52,.1-.19,.2-.29,.31-.29h5.56Z"/>
  <path class="cls-155" d="M319.05,16.34c0,.27,.01,.54,.04,.81-.62,.08-1.24,.17-1.86,.25-1.3,.97-2.54,.94-3.7-.24-.02-.27-.03-.54-.04-.82h5.56Z"/>
  <path class="cls-127" d="M13.35,326.68c1.68,1.63,.72,3.66,.85,5.53-.28,.02-.57,.03-.85,.03v-5.56Z"/>
  <path class="cls-131" d="M171.76,490.65c1.61-1.8,3.66-.63,5.51-.8,.02,.27,.03,.54,.05,.8h-5.56Z"/>
  <path class="cls-11" d="M179.17,490.65c1.24-1.73,3.12-.54,4.64-1.03,.31,.34,.62,.69,.92,1.03h-5.56Z"/>
  <path class="cls-198" d="M486.61,322.05c.35-.31,.7-.62,1.05-.93v5.56c-1.81-1.21-.49-3.13-1.05-4.63Z"/>
  <path class="cls-72" d="M13.35,171.97c2.02,1.56,.32,3.81,1.05,5.6,0,0-.28-.12-.28-.12-.21,.48-.47,.51-.77,.07v-5.56Z"/>
  <path class="cls-170" d="M317.2,489.61c1.21,.42,2.82-.55,3.7,1.04h-5.56c.33-.86,1.14-.86,1.86-1.04Z"/>
  <path class="cls-161" d="M322.76,490.65c.88-1.59,2.52-.54,3.71-1.09,.7,.21,1.64,.03,1.85,1.09h-5.56Z"/>
  <path class="cls-38" d="M13.35,177.53c.26-.03,.51-.05,.77-.07-.01,1.61,.86,3.36-.77,4.7v-4.63Z"/>
  <path class="cls-23" d="M348.01,488.92c-.39-.1-.77-.21-1.16-.31-12.52-11.74-24.45-24.07-36.46-36.33-1.27-1.3-3.43-3.26-.32-5.17,7.05-1.16,14.11-2.2,21.25-.73,.7,.42,1.1,.95,.58,1.76-2.74,1.95-6.01,.38-8.98,1.31-.56,1.57,.87,2.13,1.61,2.88,10.77,10.93,21.79,21.61,32.42,32.67,1.21,1.26,2.98,1.59,4.03,2.97-4.26,1.26-8.63,.85-12.97,.94Z"/>
  <path class="cls-125" d="M331.1,448.05c.31-.26,.62-.51,.92-.77,2.45-2.26,5.34-1.4,8.14-1.17,2.06,.53,3.35,2.12,4.77,3.53,10.6,10.54,20.92,21.35,31.32,32.07,1.31,1.35,3.15,1.96,4.23,3.52-3.64,1.13-7.34,1.9-11.18,1.8-1.87,.92-2.81-.47-3.88-1.56-10.53-10.81-21.36-21.34-31.92-32.12-1.36-1.39-3.82-2.54-2.41-5.3Z"/>
  <path class="cls-115" d="M331.1,448.05c0,1.97,1.57,2.92,2.73,4.1,11.25,11.43,22.51,22.84,33.8,34.22,.39,.39,1.11,.45,1.68,.66-2.67,1.19-5.52,.93-8.32,.96-1.44-.27-2.84,0-4.17-1.37-11.28-11.55-22.71-22.96-34.06-34.45-.93-.94-2.75-1.83-2.24-3.2,.66-1.79,2.7-.8,4.13-.89,2.14-.15,4.3-.04,6.46-.04Z"/>
  <path class="cls-98" d="M483.1,378.58c.03,3.22-.67,6.29-1.83,9.27-2.73,1.4-3.91-1-5.3-2.36-7.88-7.72-15.63-15.57-23.44-23.36-3.11-3.1-6-6.46-10.07-8.41-1.08-3.92-.26-7.69,.88-11.43,2.34-2.58,3.57,.11,4.76,1.24,5.65,5.4,11.06,11.06,16.66,16.52,5.71,5.56,10.95,11.6,17.19,16.61,.61,.49,1.02,1.13,1.17,1.92Z"/>
  <path class="cls-156" d="M471.09,417.5c-.86,3.11-2.57,5.79-4.33,8.44-2.6,1.08-4.01-.81-5.52-2.3-6.57-6.5-13.09-13.04-19.61-19.59-2.49-2.51-5-4.99-7.96-6.97-.11-3.86,1.41-7.15,3.54-10.23,2.16-1.26,3.52,.28,4.8,1.55,9.72,9.67,19.51,19.29,29.08,29.11Z"/>
  <path class="cls-189" d="M443.35,354.47c2.22-1.69,3.3,.25,4.54,1.48,9.66,9.63,19.28,19.29,28.95,28.91,1.27,1.26,2.3,2.97,4.42,3-.27,3.64-1.26,7.09-2.74,10.41-1.95-.44-3-2.06-4.28-3.33-7.07-7.02-14.1-14.08-21.15-21.12-3.64-3.64-7.1-7.48-11.64-10.11-.32-3.27-.2-6.45,1.89-9.23Z"/>
  <path class="cls-57" d="M395.1,481.59c-1.96,1.1-4.06,1.72-6.32,1.74-2.36,.91-3.78-.68-5.17-2.07-10.13-10.07-20.27-20.15-30.28-30.34-1.34-1.37-3.73-2.82-1.46-5.34,3.01-.78,5.99-1.77,9.16-1.08,10.82,10.67,21.55,21.43,32.21,32.27,1.24,1.26,2.69,2.66,1.86,4.82Z"/>
  <path class="cls-193" d="M484.97,364.04c0,2.78,.24,5.59-.93,8.24-12-11.91-23.94-23.87-35.88-35.83-1.51-1.51-3.27-2.84-4.01-4.99-.46-2.64-.65-5.28,.16-7.9,2.64-2.59,4.19,0,5.66,1.43,8.6,8.41,17.05,16.98,25.57,25.48,2.51,2.51,4.89,5.17,7.6,7.45,2.04,1.72,2.71,3.63,1.82,6.12Z"/>
  <path class="cls-185" d="M351.48,446.36c.03,1.57,1.21,2.42,2.17,3.39,10.43,10.44,20.86,20.87,31.29,31.3,1.09,1.09,2.12,2.26,3.84,2.29-2.62,1.27-5.41,1.8-8.3,1.9-5.04,.12-6.6-4.64-9.39-7.27-9.19-8.66-17.74-18.01-26.52-27.11-1.16-1.2-2.2-2.52-3.3-3.78,3.24-2.55,6.61-3.17,10.19-.72Z"/>
  <path class="cls-79" d="M445.08,332.24c11.3,11.16,22.66,22.25,33.84,33.53,1.91,1.93,5.57,2.68,5.12,6.51-.03,2.14,.2,4.32-.95,6.3-5.86-3.32-9.89-8.66-14.62-13.23-8.17-7.88-16.22-15.9-24.32-23.85-1.72-1.76-1.25-3.87-.95-5.95,.37-1.24,.73-2.5,1.88-3.31Z"/>
  <path class="cls-80" d="M395.1,481.59c-.82-2.21-2.34-3.89-3.99-5.52-8.9-8.85-17.77-17.72-26.62-26.62-1.16-1.16-2.73-2.09-2.82-4.01,3.26-2.75,7.26-2.5,11.14-2.72,2.22,6.05,7.45,9.64,11.67,14.02,5.31,5.51,10.85,10.79,16.17,16.29,1.52,1.57,3.64,3.02,2.79,5.8-2.61,1.43-5.45,2.18-8.34,2.77Z"/>
  <path class="cls-106" d="M450.72,447.43c-1.44,2.13-3.12,4.01-5.31,5.39-1.63,.6-2.65-.49-3.62-1.44-8.45-8.34-16.85-16.74-25.2-25.19-.87-.88-1.66-1.84-1.74-3.18,.91-3.14,3.1-5.06,6.04-6.25,2.1-.23,3.42,1.12,4.73,2.42,7.73,7.67,15.44,15.37,23.11,23.11,1.38,1.4,3.06,2.76,2,5.15Z"/>
  <path class="cls-50" d="M403.44,478.83c-.82-2.23-2.36-3.92-4.02-5.56-8.42-8.37-16.81-16.77-25.19-25.17-1.36-1.36-3.47-2.69-.52-4.57,1.73-2.38,4.26-2.53,6.86-2.47,8.7,10.32,18.89,19.19,28.18,28.94,1.46,1.53,3.39,2.71,3.96,4.96-2.83,1.92-6,3.01-9.27,3.88Z"/>
  <path class="cls-151" d="M450.72,447.43c-.05-1.5-.93-2.53-1.93-3.53-8.25-8.23-16.5-16.48-24.73-24.73-.88-.88-1.75-1.74-3.12-1.72,.34-3.55,2.44-5.75,5.53-7.18,2.3-.22,3.65,1.36,5.06,2.76,7.52,7.47,15.02,14.96,22.49,22.49,1.49,1.5,3.34,2.92,2.29,5.51-1.45,2.49-3.35,4.59-5.58,6.4Z"/>
  <path class="cls-145" d="M434.05,397.09c2.38-.34,3.59,1.4,4.99,2.8,7.73,7.72,15.45,15.45,23.18,23.17,1.29,1.29,2.43,2.85,4.53,2.88-2,2.2-2.39,5.44-4.77,7.4-2.48,.65-3.52-1.42-4.85-2.72-6.67-6.55-13.26-13.17-19.84-19.81-2.27-2.29-4.6-4.48-7.29-6.26,.12-3.15,1.1-5.84,4.04-7.46Z"/>
  <path class="cls-48" d="M430.29,404.52c2.38-.38,3.61,1.35,5,2.74,7.62,7.61,15.21,15.24,22.85,22.82,1.19,1.18,2.56,2.17,3.84,3.25-1.43,2.91-3.39,5.43-5.68,7.7-.06-1.49-.88-2.55-1.89-3.55-8.25-8.23-16.49-16.47-24.72-24.72-1-1-2.04-1.86-3.54-1.92,0-3.01,.84-5.47,4.13-6.33Z"/>
  <path class="cls-43" d="M484.97,364.04c-.26-1.44,.06-2.86-1.3-4.19-11.76-11.5-23.4-23.13-35.08-34.71-.97-.96-1.81-2.15-3.39-2.16-1.49-1.09-1.29-2.72-1.41-4.26-.02-1.24,.09-2.47,.6-3.62,2.46-2.4,3.95-.02,5.31,1.33,12.09,12.01,24.25,23.95,36.12,36.18,0,3.83,.38,7.69-.86,11.43Z"/>
  <path class="cls-183" d="M485.83,352.62c-2.15-.02-3.15-1.77-4.42-3.03-10.68-10.63-21.32-21.31-32-31.94-1.27-1.26-2.28-3.01-4.43-3.01-1.82-2.79-1.87-5.57,.06-8.34,2.15,.04,3.13,1.81,4.42,3.06,11.76,11.31,22.67,23.5,34.96,34.27,2.43,2.13,.85,4.96,1.5,7.39-.03,.53-.06,1.07-.1,1.6Z"/>
  <path class="cls-163" d="M471.09,417.5c-2.14-.02-3.17-1.73-4.44-3-8.28-8.24-16.52-16.52-24.8-24.76-1.17-1.16-2.09-2.74-4.02-2.85-1.69-2.47,.09-4.4,.98-6.47,1.63-2.03,3.49-1.83,5.13-.2,10.01,9.9,20.23,19.58,29.72,30,.2,.22,.25,.55,.34,.85-.55,2.33-1.39,4.54-2.9,6.43Z"/>
  <path class="cls-52" d="M412.71,474.94c-10.94-9.77-20.81-20.63-31.34-30.81-.84-.81-.76-1.58-.25-2.46,2.12-2.39,4.85-3.33,7.97-3.32,1.25,3.02,3.49,5.27,5.77,7.53,6.87,6.81,13.73,13.63,20.5,20.53,1.55,1.58,3.63,3.04,2.87,5.83-1.62,1.35-3.44,2.29-5.52,2.7Z"/>
  <path class="cls-18" d="M442.43,364.66c1.49-.98,2.77-.21,3.72,.75,10.79,10.95,22.15,21.34,32.37,32.84-.38,2.96-1.34,5.73-2.82,8.32-9.94-11.59-21.08-21.99-32.08-32.54-1.1-1.06-2.51-1.81-3-3.41-.19-2.22-.04-4.35,1.8-5.96Z"/>
  <path class="cls-94" d="M441.51,371.15c12.05,9.41,21.79,21.22,32.86,31.64,1.12,1.06,1.29,2.39,1.34,3.79-.08,1.68-.71,3.16-1.72,4.49-10.1-8.69-18.91-18.69-28.51-27.9-.88-.85-1.78-1.69-2.6-2.6-1.06-1.18-2.13-.9-3.25-.16-1.47-3.51-.58-6.55,1.87-9.26Z"/>
  <path class="cls-71" d="M436.91,460.17c-1.8,2.01-3.95,3.54-6.38,4.69-1.26,.56-2.03-.25-2.75-1.05-7.97-8.91-16.81-16.96-25.11-25.55-1.16-1.2-2.52-2.3-2.63-4.17,1.2-3.17,3.92-4.18,6.88-4.85,9.45,9.39,18.85,18.84,28.27,28.27,.76,.76,1.51,1.54,1.71,2.66Z"/>
  <path class="cls-62" d="M400.49,433.91c5.47,6.86,12.21,12.5,18.23,18.82,3.89,4.09,7.87,8.09,11.81,12.12-1.3,2.15-4.29,1.65-5.68,3.65-2.27,.57-3.32-1.24-4.56-2.47-8-7.92-15.97-15.87-23.88-23.88-1.46-1.48-3.48-2.81-2.64-5.45,1.84-1.91,3.77-3.59,6.73-2.8Z"/>
  <path class="cls-25" d="M394.09,437.05c.19,.58,.2,1.32,.59,1.7,10.03,9.95,19.57,20.39,30.17,29.75-1.77,2.02-4.62,2.12-6.62,3.74-.8-2.05-2.17-3.67-3.73-5.21-7.88-7.82-15.72-15.68-23.55-23.54-1.24-1.25-3.18-2.34-1.49-4.57,.92-2.18,2.52-2.66,4.63-1.87Z"/>
  <path class="cls-122" d="M436.91,460.17c-10.36-9.17-19.79-19.29-29.48-29.15-.28-.28-.25-.86-.37-1.31,.54-2.38,1.97-3.61,4.46-3.48,4.41,2.86,7.61,7.04,11.34,10.64,5.29,5.11,10.43,10.36,15.6,15.58,1.16,1.18,2.62,2.17,2.97,3.97-1.19,1.64-2.71,2.88-4.54,3.75Z"/>
  <path class="cls-21" d="M441.44,456.42c-10.37-9.6-20.51-19.44-29.89-30.04,.37-2.15,1.39-3.57,3.82-3.42,9.62,10.35,19.44,20.49,30.03,29.87-1.05,1.5-2.34,2.73-3.96,3.59Z"/>
  <path class="cls-169" d="M151.38,488.82c-1.87-.06-3.73-.12-5.6-.19-4.64,.43-6.98-2.9-9.8-5.73-25.04-25.15-50.12-50.25-75.26-75.3-14.32-14.27-28.32-28.85-43.07-42.67-2.16-2.02-1.64-4.45-2.28-6.72-.05-1.56-.09-3.11-.14-4.67,2.97-1.34,4.14,1.31,5.61,2.77,15.22,15.09,30.34,30.27,45.5,45.41,1.74,1.74,3.36,3.65,5.92,4.26,3.99,3.43,6.23,8.29,10.09,11.91,4.95,4.64,9.8,9.32,15.56,12.97,1.16,.74,2.36,1.48,2.93,2.85,.26,2.37,2.1,3.67,3.59,5.17,14.75,14.78,29.54,29.51,44.24,44.34,1.46,1.47,4.09,2.65,2.71,5.6Z"/>
  <path class="cls-68" d="M22.23,398.12c-1.46-4.26-2.68-8.58-3.21-13.07,1.72-1.22,2.88,.23,4.12,.95,1.75,1.02,3.11,2.52,4.53,3.94,28.8,28.8,57.62,57.58,86.36,86.43,2.35,2.36,5.71,4.37,4.93,8.62-4.77-.68-9.44-1.77-13.9-3.64-1.97-2.58-4.19-4.93-6.49-7.21-25.5-25.28-50.59-50.98-76.34-76.01Z"/>
  <path class="cls-149" d="M118.95,484.98c-.78-2.76-2.6-4.81-4.57-6.77-29.54-29.53-59.07-59.06-88.6-88.6-1.96-1.96-4.01-3.78-6.77-4.56-1.03-3.32-1.7-6.71-1.83-10.19,1.57-1.34,2.87-.41,4.12,.53,.99,.74,1.82,1.66,2.69,2.53,34.03,34.02,68.06,68.03,102.03,102.12,1.75,1.75,5.03,3.18,3.12,6.77-3.48-.14-6.87-.8-10.19-1.83Z"/>
  <path class="cls-119" d="M22.23,398.12c2.25,.4,3.79,1.9,5.33,3.43,24.91,24.93,49.83,49.85,74.75,74.77,1.4,1.4,3.1,2.65,2.75,5.01-5.84-1.4-11.44-3.44-16.72-6.3-19.78-19.8-39.56-39.6-59.38-59.37-3.06-5.54-4.95-11.52-6.73-17.55Z"/>
  <path class="cls-66" d="M15.36,358.21c.55,3.29,2.73,5.33,5.03,7.61,39.36,39.16,78.62,78.42,117.78,117.78,2.28,2.3,4.31,4.49,7.61,5.03-3.44,.34-6.77-.61-10.15-.93-2.02-1.45-3.64-3.32-5.38-5.06-36.96-36.95-73.91-73.91-110.87-110.85-1.09-1.09-2.16-2.19-3.09-3.43-.32-3.38-1.27-6.71-.92-10.16Z"/>
  <path class="cls-95" d="M71.69,406.41c-2.61,.6-3.72-1.54-5.13-2.93-15.67-15.6-31.29-31.26-46.95-46.87-1.27-1.26-2.26-3.01-4.4-3.06-.79-4.59-.98-9.22-.78-13.86,.37,3.64,3.57,5.06,5.76,7.26,12.86,12.9,25.73,25.77,38.64,38.62,1.37,1.36,2.43,3.34,4.86,3.1,1.06,.08,1.71,.81,2.01,1.67,1.66,4.8,4.01,9.28,6.08,13.89,.31,.7,.41,1.48-.07,2.19Z"/>
  <path class="cls-172" d="M16.28,368.37c1.94,.09,2.88,1.67,4.04,2.84,37.5,37.47,74.99,74.96,112.46,112.46,1.17,1.17,2.75,2.1,2.84,4.04-2.16-.3-4.32-.6-6.48-.9,.31-2.16-1.18-3.36-2.49-4.68-34.93-34.93-69.86-69.86-104.79-104.79-1.31-1.31-2.51-2.79-4.68-2.49-.3-2.16-.6-4.32-.9-6.48Z"/>
  <path class="cls-75" d="M151.38,488.82c-.02-2.15-1.77-3.16-3.04-4.43-15.34-15.38-30.73-30.71-46-46.16-.95-.96-3.99-1.65-1.72-4.16,6.12,1.3,11.91,3.59,17.68,5.92,.6,.24,.82,.86,.72,1.53-.91,.19-2.08,.34-1.38,1.65,.49,.92,1.36,1.65,2.12,2.41,13.96,14.11,27.92,28.22,41.91,42.29,.72,.72,1.76,1.13,2.64,1.68-4.33,.1-8.66,.19-12.93-.73Z"/>
  <path class="cls-191" d="M28.95,415.66c2.01-.14,2.98,1.42,4.15,2.59,17.56,17.53,35.11,35.08,52.64,52.64,1.17,1.17,2.73,2.14,2.59,4.15-22.1-9.51-38.89-25.16-51.94-45.08-2.95-4.5-5.77-9.11-7.44-14.29Z"/>
  <path class="cls-43" d="M139.99,19c4.3-1.26,8.72-.84,13.11-.94,0,0,.29,.26,.29,.26,1.5,.79,2.85,1.76,4.06,2.98,10.3,10.34,20.63,20.63,30.93,30.97,1.41,1.42,2.72,2.92,3.59,4.76,.63,1.34,.51,2.38-1.09,2.87-7.13,1.08-14.24,2.37-21.43,.55-1.43-1.83,.32-1.95,1.33-2.46,2.39-.5,4.88,.26,7.29-.45,.48-1.61-.9-2.18-1.66-2.96-10.7-10.98-21.92-21.46-32.29-32.76-1.2-1.3-3.09-1.39-4.11-2.81Z"/>
  <path class="cls-98" d="M116.15,22.77c2.93-1.2,5.97-1.9,9.16-1.86,1.12-.57,1.69,.3,2.29,.93,10.51,10.96,21.51,21.44,32.05,32.36,1.56,1.61,4.68,3.18,2.18,6.39-3.75,.86-7.47,2.04-11.39,1.03-.92-2.99-3.31-4.87-5.4-6.97-8.57-8.59-17.19-17.13-25.71-25.77-1.64-1.66-3.96-3.13-3.19-6.12Z"/>
  <path class="cls-115" d="M16.03,142.92c-.01-2.78-.25-5.58,.92-8.23,2.53,1.26,4.32,3.39,6.27,5.32,11.12,10.99,22.03,22.2,33.28,33.06,1.04,2.68,.73,5.48,.51,8.21-.29,3.55-1.95,4.11-4.87,1.84-1.09-.85-2.02-1.89-3-2.87-10.47-10.39-20.75-20.97-31.38-31.2-1.92-1.85-2.56-3.7-1.74-6.14Z"/>
  <path class="cls-125" d="M55.95,172.9c-1.97,0-2.92-1.57-4.1-2.73-11.43-11.25-22.84-22.51-34.22-33.8-.39-.39-.46-1.11-.68-1.67-.07-3.84,.63-7.56,1.81-11.2,11.24,13.07,23.96,24.69,36.17,36.81,.97,.97,2.26,1.62,2.76,3.03,.61,2.41,.57,4.83,.04,7.24-.32,.98-.82,1.83-1.77,2.33Z"/>
  <path class="cls-23" d="M55.95,172.9c.26-.62,.52-1.23,.77-1.85,2.22,2.11,1.4,4.88,1.54,7.42,.28,5.1-.4,10.14-1.25,15.15-.51,1.76-1.56,2.14-3.1,1.14-1.17-.76-2.13-1.77-3.1-2.75-11.8-11.9-23.82-23.58-35.48-35.63,0,0-.26-.27-.26-.27,.09-4.41-.35-8.86,.96-13.19,.27,1.44-.08,2.87,1.29,4.2,11.56,11.3,23,22.74,34.5,34.1,.95,.94,1.84,2.75,3.2,2.26,1.8-.65,.81-2.7,.91-4.12,.15-2.15,.04-4.31,.03-6.47Z"/>
  <path class="cls-185" d="M56.93,162.71c-1.89-.75-3.43-1.96-4.87-3.41-10.2-10.25-20.43-20.49-30.69-30.68-1.47-1.46-2.72-2.92-2.62-5.14,.15-2.87,.65-5.66,1.88-8.28,12.67,12.69,25.48,25.25,38,38.11,.61,3.35,.87,6.63-1.71,9.39Z"/>
  <path class="cls-197" d="M97.44,28.3c2.53-1.54,5.3-2.38,8.21-2.81,2.33-.86,3.78,.61,5.2,2.02,9.56,9.51,19.11,19.02,28.59,28.6,2.12,2.15,3.89,4.43-.31,6.35-2.22,.58-4.4,1.51-6.78,.91-1.36-.47-2.31-1.48-3.26-2.47-10.47-10.95-22-20.87-31.64-32.61Z"/>
  <path class="cls-156" d="M76.07,38.44c2.46-2.11,5.26-3.59,8.32-4.63,2.23-.51,3.35,1.2,4.6,2.44,8.19,8.12,16.36,16.27,24.46,24.47,1.59,1.61,3.47,3.17,2.95,5.89-2.47,2.8-5.77,3.53-9.28,3.79-9.83-9.71-19.55-19.54-29.33-29.31-.75-.75-1.56-1.5-1.72-2.65Z"/>
  <path class="cls-193" d="M139.99,19c3.97-.81,5.12,2.68,7.18,4.74,10.16,10.12,20.3,20.25,30.4,30.42,1.15,1.16,3.47,2.27,2.86,3.82-.77,1.95-3.27,.73-5,.94-1.21,.15-2.46,0-3.7,0-2.12-1.02-3.76-2.63-5.4-4.28-11.53-11.57-23.11-23.09-34.62-34.68,2.66-1.16,5.48-.96,8.27-.96Z"/>
  <path class="cls-80" d="M22.47,108.68c.37-2.94,1.32-5.69,2.8-8.26,1.92,.34,3.35,1.57,4.66,2.85,10.23,10.01,20.28,20.2,30.44,30.3,.91,2.94,.13,5.68-.98,8.38-1.9,2.09-3.72,.99-5.19-.42-10.65-10.21-20.87-20.87-31.43-31.17-.45-.44-.6-1.05-.29-1.68Z"/>
  <path class="cls-189" d="M139.33,61.56c.95-.9,2.43-1.58,.78-3.22-10.79-10.7-21.53-21.44-32.33-32.12-.48-.47-1.41-.49-2.13-.72,3.38-1.36,6.8-2.59,10.5-2.73,.83,2.22,2.41,3.86,4.05,5.5,9.57,9.53,19.12,19.07,28.64,28.65,1,1.01,3.23,1.98,.68,3.72-3.24,2.05-6.56,3.2-10.19,.92Z"/>
  <path class="cls-16" d="M97.44,28.3c3.3,.33,3.99,3.58,5.88,5.44,9.65,9.49,19.09,19.21,28.6,28.85-2.75,2.46-6.05,2.93-9.55,2.66-10.26-10.05-20.37-20.26-30.47-30.49-.97-.98-1.82-2.09-1.73-3.62,2.27-1.34,4.62-2.47,7.27-2.84Z"/>
  <path class="cls-61" d="M59.74,133.07c-1.16,.02-2.02-.56-2.81-1.35-10.55-10.44-21.1-20.87-31.66-31.3,.42-2.61,1.47-4.97,2.84-7.21,2.75-1.41,3.92,1.04,5.31,2.4,7.27,7.11,14.45,14.32,21.6,21.55,2.37,2.4,4.75,4.72,7.87,6.13,.26,3.68-.97,6.88-3.15,9.77Z"/>
  <path class="cls-2" d="M22.47,108.68c10.37,10.27,20.74,20.55,31.12,30.81,1.4,1.38,2.59,3.17,4.97,2.84,2.28,3.63,1.13,6.95-.92,10.19-1.57-.03-2.42-1.21-3.39-2.18-10.44-10.43-20.87-20.87-31.31-31.29-1.09-1.09-2.25-2.13-2.3-3.84,.12-2.31,.66-4.51,1.83-6.53Z"/>
  <path class="cls-79" d="M131.72,19.96c1.03,.16,2.03,.09,2.93,1.01,11.98,12.18,24.01,24.31,36.02,36.46,.42,.43,.71,.99,1.07,1.49-.98,.07-2.03-.12-2.76,.79-2.13,1.91-4.29,1.85-6.48,.12-.87-2.21-2.48-3.83-4.12-5.48-11.04-11.13-22.05-22.29-33.07-33.45,2.01-1.16,4.23-.92,6.41-.95Z"/>
  <path class="cls-187" d="M62.31,122.87c-2.22,1.67-3.32-.23-4.58-1.47-8.4-8.38-16.77-16.79-25.19-25.15-1.28-1.27-2.29-3-4.43-3.04,.65-2.74,1.86-5.21,3.5-7.49,2.69-1.35,3.95,.92,5.36,2.31,7.11,6.97,14.13,14.03,21.14,21.1,2.25,2.27,4.49,4.51,7.51,5.77-.19,3.04-.4,6.07-3.32,7.96Z"/>
  <path class="cls-145" d="M76.07,38.44c10.66,9.34,20.17,19.83,30.24,29.77,.39,.38,.41,1.12,.6,1.7-1.77,2.57-4.18,4-7.32,4.15-8.73-8.82-17.56-17.55-26.29-26.37-1.5-1.51-3.08-3.04-3.3-5.36,1.84-1.58,3.78-3.01,6.07-3.89Z"/>
  <path class="cls-106" d="M50.02,59.73c1.54-2.16,3.37-4.04,5.54-5.58,1.84-.6,2.9,.69,3.96,1.75,8.2,8.11,16.35,16.27,24.47,24.46,.97,.98,1.96,1.99,2,3.52-.63,2.74-2.46,4.32-4.99,5.25-1.73,.36-2.96-.58-4.07-1.68-8.64-8.53-17.22-17.11-25.76-25.75-.55-.56-.87-1.26-1.16-1.97Z"/>
  <path class="cls-39" d="M65.07,114.53c-2.22,1.68-3.31-.23-4.55-1.47-8.15-8.12-16.28-16.28-24.43-24.4-1.28-1.28-2.37-2.9-4.48-2.94,.86-2.36,1.96-4.6,3.64-6.51,1.71-1.08,2.99-.06,4.08,1.01,9.29,9.18,18.64,18.3,27.65,27.76,.32,.33,.48,.78,.64,1.22,.07,2.21-.09,4.32-2.55,5.32Z"/>
  <path class="cls-133" d="M67.2,109.02c-9.56-8.3-17.97-17.79-27.1-26.54-1.42-1.36-2.55-3.2-4.85-3.26,.9-2.38,2.34-4.42,4.08-6.26,2.31-.14,3.58,1.55,4.97,2.93,8.94,8.86,17.79,17.81,26.76,26.64-.3,2.74-.8,5.38-3.86,6.48Z"/>
  <path class="cls-8" d="M85.6,83.72c-9.9-9.96-19.39-20.35-30.03-29.56,1.34-1.83,2.97-3.35,4.92-4.52,1.88-.62,2.85,.82,3.89,1.85,7.66,7.59,15.33,15.18,22.86,22.89,1.58,1.62,3.28,3.32,3.27,5.89-1.42,1.45-1.98,4.13-4.9,3.44Z"/>
  <path class="cls-99" d="M90.23,79.95c-9.01-11-19.42-20.61-29.75-30.31,1.23-1.62,2.78-2.84,4.62-3.71,2.09-.63,3.09,1.04,4.22,2.17,7.88,7.79,15.72,15.64,23.53,23.51,1.39,1.4,3.03,2.74,2.64,5.1-1.26,1.88-2.33,4.07-5.26,3.25Z"/>
  <path class="cls-71" d="M70.61,102.49c-2.1-.14-3.06-1.91-4.35-3.15-9.06-8.7-17.47-18.08-26.93-26.38,1.07-2.3,2.56-4.29,4.46-5.96,9.52,9.5,19.03,19.01,28.51,28.55,.65,.65,1.26,1.34,1.57,2.24-.11,2.24-1.43,3.65-3.26,4.7Z"/>
  <path class="cls-148" d="M50.02,59.73c9.24,7.65,17.02,16.8,25.73,25,1.52,1.43,2.58,3.53,4.98,3.87,.54,3.35-1.95,4.19-4.28,5.18-2.05-.13-3.22-1.66-4.51-2.94-7.63-7.58-15.25-15.17-22.8-22.83-1.21-1.23-3.11-2.23-2.49-4.53,.84-1.51,1.94-2.77,3.38-3.74Z"/>
  <path class="cls-138" d="M90.17,31.13c9.51,9.66,19.04,19.3,28.53,28.98,1.26,1.28,3.02,2.28,3.03,4.44-1.35,2.24-3.01,3.43-5.56,1.68-.85-1.27-1.5-2.73-2.57-3.77-9.78-9.51-18.88-19.72-29.22-28.66,1.77-1.24,3.65-2.23,5.79-2.67Z"/>
  <path class="cls-48" d="M94.85,76.48c-.17-.58-.17-1.34-.55-1.71-9.68-9.67-18.96-19.74-29.2-28.84,1.33-1.61,2.98-2.8,4.91-3.6,8.31,9.44,17.61,17.9,26.34,26.93,1.24,1.29,3.01,2.24,3.15,4.35-.77,2.22-2.04,3.62-4.65,2.87Z"/>
  <path class="cls-164" d="M46.65,63.47c9.63,10.38,19.45,20.58,30.12,29.92,.14,2.46-1.3,3.72-3.41,4.47-9.3-9.22-18.61-18.44-27.92-27.65-.91-.9-1.57-1.89-1.64-3.2,.53-1.52,1.59-2.61,2.85-3.53Z"/>
  <path class="cls-87" d="M483.81,132.11c.76,3.36,1.37,6.74,1.11,10.21-1.27,1.1-2.3,.24-3.28-.48-1.13-.82-2.06-1.86-3.04-2.85-37.87-37.87-75.76-75.73-113.57-113.66-1.64-1.65-4.78-2.85-3.37-6.27,3.47-.2,6.87,.21,10.22,1.09,1.4,.57,2.86,.91,3.98,2.14,14.84,16.29,30.91,31.36,46.39,47.01,18.09,18.28,36.39,36.36,54.5,54.62,2.52,2.54,6.41,3.99,7.06,8.17Z"/>
  <path class="cls-112" d="M483.81,132.11c-1.68-3.1-4.94-4.51-7.32-6.89-32.53-32.63-65.11-65.21-97.73-97.73-2.38-2.37-3.8-5.63-6.88-7.32,5.04,.44,9.98,1.35,14.83,2.82,2.61,1.71,4.46,4.21,6.63,6.37,28.58,28.45,56.98,57.08,85.6,85.48,.75,.75,1.68,1.38,2.06,2.45,1.4,4.85,2.45,9.77,2.82,14.82Z"/>
  <path class="cls-181" d="M361.67,19.07c-.03,1.97,1.52,2.94,2.69,4.12,38.81,38.83,77.62,77.64,116.45,116.45,1.17,1.17,2.14,2.72,4.12,2.69,1.08,3.02,.91,6.14,.79,9.26-2.98,1.3-4.13-1.36-5.61-2.82-15.45-15.32-30.81-30.72-46.18-46.11-2.3-2.3-4.66-4.51-7.73-5.78-4.46-3.57-7.82-8.21-11.93-12.14-2.31-2.2-5.19-3.89-6.76-6.84-.25-2.37-2.06-3.7-3.56-5.2-15.97-15.99-31.97-31.95-47.91-47.98-1.75-1.76-4.26-3.26-3.63-6.44,3.12-.12,6.24-.3,9.25,.79Z"/>
  <path class="cls-40" d="M481,117.29c-2.01-.88-3.59-2.32-5.12-3.86-28.42-28.45-56.86-56.89-85.32-85.32-1.54-1.54-2.98-3.11-3.85-5.13,6.04,1.23,11.96,2.86,17.57,5.48,1.98,2.56,4.2,4.91,6.5,7.2,19.2,19.17,38.38,38.35,57.55,57.55,2.29,2.29,4.63,4.51,7.19,6.51,2.57,5.63,4.28,11.52,5.48,17.57Z"/>
  <path class="cls-12" d="M475.52,99.72c-2.15,.31-3.37-1.14-4.69-2.46-21.36-21.37-42.73-42.74-64.1-64.1-1.32-1.32-2.75-2.54-2.45-4.69,6.27,1.87,12.16,4.56,17.64,8.16,14.43,15.87,29.58,31.03,45.46,45.45,3.59,5.47,6.25,11.38,8.14,17.64Z"/>
  <path class="cls-111" d="M379.03,64.62c1.49-2.8-1.2-3.75-2.48-5.05-12.5-12.65-25.13-25.19-37.68-37.8-1.26-1.27-3.01-2.24-3.15-4.35,.63,.01,1.27,.02,1.9,.03,6.69-.92,10.87,2.71,15.24,7.27,12.92,13.48,26.34,26.48,39.47,39.76,1.52,1.54,4.48,2.86,2.38,5.99-5.67-.77-11.25-1.77-15.68-5.86Z"/>
  <path class="cls-205" d="M426.33,96.07c3.06,.52,5.13,2.58,7.2,4.65,15.93,15.93,31.84,31.86,47.79,47.76,1.27,1.27,2.26,3.03,4.39,3.12,.69,5.22,1.08,10.46,.85,15.73-.26-.3-.51-.61-.77-.91-.18-6.45-5.16-9.66-9.12-13.6-12.36-12.29-24.67-24.64-36.99-36.97-1.64-1.64-3.23-3.32-5.36-4.36-3.16-4.88-7.1-9.36-7.99-15.42Z"/>
  <path class="cls-17" d="M394.98,70.21c.1-2.19-1.67-3.2-2.93-4.47-12.84-12.89-25.7-25.75-38.58-38.6-4.5-4.49-8.22-10.28-15.84-9.69,4.96-.26,9.88,.24,14.79,.83,.88,2.2,2.49,3.83,4.13,5.47,16.55,16.52,33.1,33.03,49.55,49.65,.95,.96,3.98,1.66,1.7,4.17-5.23-.78-9.4-3.41-12.82-7.36Z"/>
  <path class="cls-179" d="M467.37,82.08c-2.86-.55-4.87-2.43-6.83-4.38-11.42-11.41-22.84-22.83-34.25-34.25-1.95-1.95-3.83-3.97-4.38-6.82,19.56,10.74,34.67,25.94,45.46,45.45Z"/>
  <path class="cls-44" d="M445.14,241.47c0-4.02,0-8.04,0-12.06,2.94,.79,5.02,2.82,7.1,4.87,11.49,11.35,23,22.69,34.5,34.04,0,4.01,0,8.03,0,12.04-1.52,1.16-2.68,.12-3.61-.81-12.72-12.63-25.58-25.13-37.97-38.08Z"/>
  <path class="cls-175" d="M55.86,228.47c0,3.4,0,6.79,0,10.19-2.17,.69-3.52-.75-4.79-2.02-12.28-12.26-24.71-24.37-36.74-36.88-.04-.93-.09-1.87-.13-2.8,.06-2.46,.12-4.93,.18-7.39,2.12,.11,3.1,1.87,4.37,3.13,10.68,10.63,21.34,21.28,31.97,31.96,1.53,1.54,3.11,2.96,5.14,3.81Z"/>
  <path class="cls-117" d="M242.16,58.85h-9.28c-4.56-7.05-11.18-12.19-16.91-18.16-7.54-7.87-15.26-15.57-22.89-23.35,.29-.06,.58-.11,.88-.16,2.17,.02,4.33,.03,6.5,.05,.93,.02,1.86,.04,2.79,.06,12.66,12.22,24.95,24.81,37.38,37.26,1.1,1.1,2.81,2.23,1.53,4.29Z"/>
  <path class="cls-64" d="M55.98,195.14c-.02,3.4-.04,6.79-.06,10.19-2.14-.06-3.13-1.82-4.4-3.08-11.59-11.49-23.09-23.06-34.76-34.45-1.48-1.44-1.56-2.83-1.55-4.49,.02-2.31,.08-4.61,.12-6.92,2.16,.65,3.64,2.21,5.17,3.74,10.55,10.57,21.11,21.14,31.69,31.68,1.19,1.19,2.53,2.22,3.79,3.33Z"/>
  <path class="cls-144" d="M444.97,191.43c0-.81-.02-1.62-.03-2.43-.7-2.17-.2-4.4-.36-6.59-.02-1.7,1.04-1.6,2.17-1.24,1.83,.58,3.1,1.95,4.4,3.25,10.77,10.74,21.5,21.51,32.29,32.24,1.33,1.32,2.34,2.83,3.27,4.41,0,3.09,0,6.18,0,9.26-2.14-.03-3.14-1.78-4.4-3.04-10.99-10.94-21.94-21.93-32.92-32.87-1.27-1.26-2.28-3-4.43-3Z"/>
  <path class="cls-128" d="M55.97,310.01c.04,3.05,.08,6.1,.13,9.15-2.92,1.55-4.16-1.04-5.63-2.49-10.2-10.06-20.32-20.2-30.41-30.37-1.94-1.96-4.3-3.53-5.79-5.93,0-3.09,0-6.18,0-9.26,2.15,.04,3.15,1.8,4.42,3.06,10.72,10.67,21.41,21.36,32.09,32.08,1.54,1.55,3.13,2.97,5.19,3.77Z"/>
  <path class="cls-78" d="M445.14,272.02c0-3.09,0-6.18,0-9.26,2.06-1.29,3.19,.43,4.29,1.52,12.45,12.43,25.04,24.72,37.26,37.38,.03,1.86,.07,3.72,.1,5.59-.05,1.23-.09,2.45-.14,3.68-2.13-.09-3.12-1.85-4.4-3.11-10.93-10.87-21.81-21.8-32.74-32.67-1.27-1.27-2.26-3.03-4.39-3.12Z"/>
  <path class="cls-165" d="M297.75,448.08c3.7-.03,7.4-.06,11.1-.09,.82,2.24,2.43,3.88,4.07,5.52,10.37,10.34,20.73,20.69,31.06,31.07,1.17,1.17,2.74,2.1,2.86,4.04-6.35,1.16-11.2-.6-15.81-5.63-9.43-10.3-19.62-19.9-29.52-29.76-1.54-1.53-2.95-3.11-3.77-5.15Z"/>
  <path class="cls-137" d="M268.09,58.85c-2.77,0-5.55,0-8.32,0-11.32-12.71-23.91-24.19-35.71-36.43-1.39-1.44-3.67-2.49-3.19-5.15,2.47,0,4.94,0,7.41,0,10.9,11.06,21.78,22.13,32.72,33.15,2.6,2.62,5.19,5.23,7.1,8.42Z"/>
  <path class="cls-144" d="M315.93,59.05c-1.13,.4-2.25,.31-3.36-.04,0-2.15-1.75-3.15-3.01-4.42-10.94-10.99-21.92-21.93-32.86-32.91-1.26-1.27-3.01-2.26-3.05-4.4,3.4,0,6.79,0,10.19,0,12.63,12.21,24.92,24.75,37.29,37.22,1.2,1.21,3.88,2.84,.65,4.91-1.95-.13-3.94,.31-5.85-.35Z"/>
  <path class="cls-184" d="M55.86,269.24c0,2.77,0,5.55,0,8.32-2.03-.85-3.61-2.27-5.15-3.82-10.65-10.7-21.33-21.37-32.03-32.02-1.27-1.27-2.27-3.02-4.42-3.06,0-2.78,0-5.56,0-8.34,2.02-1.32,3.19,.32,4.29,1.43,12.45,12.47,25.13,24.72,37.29,37.48Z"/>
  <path class="cls-130" d="M56.86,342.43c.06,1.44,.11,2.89,.17,4.33-.5,1.73,.8,4.41-.85,5.12-2.07,.88-3.17-1.83-4.49-3.14-11.02-10.91-21.95-21.91-32.95-32.85-1.26-1.26-2.23-3.03-4.38-3.08-.04-2.47-.09-4.94-.13-7.42,.02-.93,.05-1.86,.07-2.79,2.5-.48,4.05,1.28,5.49,2.71,12.44,12.29,24.89,24.56,37.07,37.12Z"/>
  <path class="cls-108" d="M444.15,165.49c-.05-1.46-.1-2.92-.16-4.38,.42-1.43-.69-3.62,.85-4.24,1.86-.75,2.76,1.53,3.88,2.64,10.96,10.86,21.86,21.78,32.75,32.71,1.54,1.54,3.09,3.01,5.17,3.79,.04,2.48,.08,4.96,.12,7.44-.02,.63-.05,1.25-.07,1.88-2.04,1.3-3.2-.38-4.31-1.48-12.77-12.76-25.69-25.36-38.23-38.35Z"/>
  <path class="cls-34" d="M157.24,446.96c2.06,.07,4.12,.14,6.19,.21,13.02,12.51,25.6,25.45,38.37,38.22,1.11,1.11,2.78,2.27,1.47,4.31-.32,.02-.63,.04-.95,.07-2.47,0-4.94,0-7.41,.01-.62-.04-1.23-.08-1.85-.12-.86-2.21-2.47-3.83-4.1-5.46-11.08-11.04-22.14-22.1-33.17-33.19-.89-.9-2.7-1.64-1.93-3.24,.58-1.2,2.25-.46,3.39-.79Z"/>
  <path class="cls-146" d="M438.51,121.96c-1.36-3.66-2.71-7.33-4.07-10.99,2.44-.36,3.51,1.62,4.87,2.97,13.61,13.55,27,27.33,40.88,40.6,3.66,3.5,6.81,6.44,5.6,11.87-2.23-.84-3.87-2.46-5.51-4.11-12.42-12.46-24.87-24.9-37.33-37.32-1.27-1.27-2.27-3.03-4.44-3.03Z"/>
  <path class="cls-128" d="M184.84,447.88c3.05,.05,6.1,.1,9.15,.16,.04,2.15,1.8,3.15,3.06,4.42,10.66,10.72,21.36,21.41,32.07,32.08,1.55,1.54,2.97,3.13,3.77,5.19-3.09,0-6.17,0-9.26,0-12.56-12.18-24.79-24.7-37.17-37.06-1.16-1.16-2.59-2.3-2.09-4.31,.15-.16,.31-.32,.46-.47Z"/>
  <path class="cls-97" d="M259.77,448.14c3.09,0,6.18,0,9.26,0,.1,2.12,1.86,3.11,3.12,4.38,10.63,10.69,21.29,21.34,31.97,31.98,1.54,1.53,2.97,3.11,3.79,5.15-.6,.05-1.21,.1-1.81,.14-2.48,0-4.96,0-7.44-.01,0,0,.02-.09,.02-.09-12.68-12.2-24.95-24.81-37.39-37.25-1.1-1.1-2.81-2.23-1.53-4.29Z"/>
  <path class="cls-5" d="M356.88,60.89c-4.39-.13-8.8,.16-13.13-.86,2.69-2.01,.66-3.34-.71-4.71-10.18-10.19-20.37-20.37-30.55-30.56-1.08-1.08-2.23-2.11-3.18-3.32-.93-1.19-2.06-2.36-1.36-4.1,1.86-.06,3.72-.12,5.58-.18,1.23,.08,2.46,.16,3.7,.24,.84,2.03,2.27,3.59,3.81,5.12,11.41,11.36,22.82,22.73,34.1,34.21,.95,.96,3.99,1.64,1.74,4.16Z"/>
  <path class="cls-177" d="M201.4,58.91c-3.09,.03-6.17,.05-9.26,.08-2.8-5.09-7.37-8.61-11.3-12.7-9.05-9.42-18.79-18.17-27.46-27.97,5.89-1.12,10.17,.79,14.4,5.37,9.8,10.63,20.33,20.57,30.53,30.83,1.26,1.27,3.02,2.26,3.08,4.4Z"/>
  <path class="cls-184" d="M228.27,448.14c2.48,0,4.95,0,7.43,0,4.19,3.37,7.64,7.49,11.46,11.24,8.41,8.28,16.76,16.64,25.03,25.06,1.35,1.38,3.81,2.52,2.41,5.27-2.47,0-4.94,0-7.41,0-.04-2.15-1.8-3.15-3.07-4.42-10.89-10.94-21.82-21.83-32.7-32.77-1.27-1.27-3.03-2.26-3.14-4.39Z"/>
  <path class="cls-81" d="M55.85,249.77c0,3.4,0,6.8,0,10.21-2.06,1.28-3.19-.43-4.29-1.53-12.46-12.43-25.03-24.74-37.28-37.38,0-3.09-.01-6.18-.02-9.28,0-.3,.01-.61,.02-.91,1.52-1.16,2.68-.12,3.61,.81,12.72,12.63,25.58,25.12,37.96,38.08Z"/>
  <path class="cls-104" d="M14.28,221.07c2.15,.04,3.15,1.8,4.42,3.07,10.94,10.89,21.83,21.82,32.77,32.7,1.27,1.27,2.26,3.03,4.39,3.14,0,1.85,0,3.69,0,5.54-1.23,.44-2.11-.3-2.85-1.04-12.97-12.86-25.98-25.69-38.73-38.78,0-1.54,0-3.09,0-4.63Z"/>
  <path class="cls-160" d="M14.27,225.7c2.23,.84,3.85,2.46,5.5,4.09,12.01,11.92,24.05,23.82,36.08,35.72v3.72c-2.13-.1-3.11-1.87-4.39-3.13-10.94-10.89-21.83-21.82-32.77-32.71-1.27-1.27-2.27-3.03-4.42-3.07,0-1.54,0-3.09,0-4.63Z"/>
  <path class="cls-37" d="M486.7,301.67c-2.14-.06-3.14-1.82-4.41-3.09-10.93-10.88-21.82-21.81-32.75-32.69-1.27-1.27-2.26-3.03-4.39-3.13,0-3.71,0-7.41,0-11.12,2.05-1.28,3.18,.43,4.28,1.52,11.71,11.58,23.33,23.25,34.97,34.89,1.01,1.01,1.5,2.31,2.32,3.42,0,.31,.01,.63,.02,.94,0,2.47,.01,4.95,.02,7.42-.02,.61-.04,1.22-.06,1.84Z"/>
  <path class="cls-154" d="M486.72,291.48c-12.39-12.24-24.77-24.49-37.19-36.7-1.28-1.26-2.26-3.03-4.39-3.13,0-3.39,0-6.78,0-10.18,2.03,.85,3.61,2.27,5.15,3.82,10.65,10.7,21.32,21.37,32.02,32.02,1.27,1.27,2.27,3.02,4.41,3.06,0,3.7,0,7.41,0,11.11Z"/>
  <path class="cls-182" d="M203.26,489.7c-.05-2.14-1.81-3.14-3.08-4.41-11.2-11.25-22.45-22.46-33.65-33.72-1.27-1.27-3.03-2.26-3.1-4.4,7.15,.02,14.3-.3,21.42,.7,0,0-.19,.25-.19,.25-1.8,1.62-4.2,.53-6.46,1.45,.19,1.84,1.76,2.72,2.85,3.82,10.01,10.08,20.1,20.08,30.08,30.18,1.65,1.67,3.99,3.14,3.25,6.15-1.86,0-3.71,.01-5.57,.02-1.85-.01-3.7-.02-5.55-.03Z"/>
  <path class="cls-186" d="M214.37,489.72c-.84-2.22-2.45-3.86-4.09-5.5-10.68-10.64-21.34-21.31-31.99-31.99-.95-.95-2.74-1.86-2.33-3.19,.59-1.88,2.66-.83,4.08-.96,1.52-.14,3.07,.02,4.61,.05,.22,2.08,1.91,3.1,3.19,4.39,10.89,10.94,21.83,21.84,32.72,32.78,1.27,1.27,3.03,2.27,3.07,4.42-3.09,0-6.18,0-9.26,0Z"/>
  <path class="cls-6" d="M259.77,448.14c.1,2.13,1.87,3.11,3.13,4.39,10.88,10.93,21.81,21.82,32.69,32.75,1.27,1.27,3.02,2.27,3.1,4.41-2.16,.02-4.32,.04-6.49,.06-.62,0-1.24-.02-1.86-.02-12.36-11.98-24.39-24.28-36.55-36.45-1.36-1.37-3.03-2.75-2.34-5.13,2.77,0,5.55,0,8.32,0Z"/>
  <path class="cls-104" d="M274.59,489.72c-.04-2.14-1.8-3.14-3.06-4.41-10.65-10.7-21.32-21.37-32.01-32.02-1.54-1.54-2.97-3.11-3.82-5.14,2.77,0,5.55,0,8.32,0,12.77,12.15,25.01,24.84,37.48,37.29,1.1,1.1,2.74,2.27,1.43,4.29-2.78,0-5.56,0-8.34,0Z"/>
  <path class="cls-81" d="M251.44,448.14c.85,2.03,2.28,3.61,3.82,5.14,10.69,10.65,21.37,21.32,32.01,32.02,1.26,1.27,3.02,2.27,3.06,4.41-1.24,0-2.47,0-3.71,0-12.64-12.25-24.95-24.82-37.38-37.28-1.1-1.1-2.81-2.23-1.53-4.29,1.24,0,2.48,0,3.72,0Z"/>
  <path class="cls-49" d="M247.72,448.14c.1,2.13,1.87,3.11,3.14,4.39,10.88,10.94,21.82,21.83,32.7,32.77,1.27,1.27,3.03,2.27,3.07,4.42-1.24,0-2.47,0-3.7,0-.04-2.15-1.8-3.15-3.07-4.42-10.89-10.94-21.82-21.83-32.7-32.76-1.27-1.27-3.03-2.26-3.14-4.39,1.23,0,2.47,0,3.7,0Z"/>
  <path class="cls-174" d="M315.93,59.05c2.27-.07,4.54-.13,6.81-.2,1.05-1,2.6-.79,3.85-1.39-.38-2.05-1.97-2.91-3.12-4.07-10.22-10.29-20.53-20.5-30.71-30.83-1.36-1.38-3.84-2.53-2.43-5.3,.93,0,1.86-.01,2.79-.02,1.85,.01,3.7,.02,5.55,.04,12.98,12.55,25.6,25.46,38.35,38.24,1.1,1.11,2.79,2.26,1.48,4.31-7.53-.06-15.08,.33-22.57-.79Z"/>
  <path class="cls-15" d="M290.33,17.27c.04,2.14,1.78,3.13,3.04,4.4,10.6,10.65,21.25,21.24,31.82,31.91,1.34,1.36,4.15,2.68,3.39,4.42-.92,2.14-3.82,.62-5.85,.85-.08-2.14-1.86-3.12-3.13-4.39-10.88-10.94-21.82-21.83-32.7-32.76-1.27-1.27-3.02-2.27-3.07-4.42,2.16,0,4.32,0,6.49,0Z"/>
  <path class="cls-37" d="M242.16,58.85c-.1-2.13-1.87-3.11-3.13-4.39-10.88-10.94-21.81-21.82-32.69-32.75-1.27-1.27-3.02-2.27-3.08-4.41,1.54-.02,3.08-.03,4.62-.05,1.55,0,3.1,.02,4.65,.03,1.59,.93,3.09,1.95,4.41,3.28,10.96,11.02,22,21.97,32.92,33.03,1.36,1.37,3.84,2.49,2.5,5.26-3.4,0-6.79,0-10.19,0Z"/>
  <path class="cls-154" d="M252.35,58.85c-.1-2.13-1.87-3.11-3.13-4.39-11.1-11.15-22.24-22.26-33.35-33.4-1.19-1.19-2.24-2.52-3.35-3.79,2.78,0,5.56,0,8.34,0,11.68,11.83,23.35,23.66,35.04,35.48,1.74,1.76,3.56,3.44,3.87,6.09-2.47,0-4.94,0-7.41,0Z"/>
  <path class="cls-174" d="M444.15,165.49c2.14,.06,3.14,1.82,4.41,3.09,11.26,11.2,22.46,22.46,33.72,33.66,1.27,1.27,2.27,3.02,4.41,3.09,.02,2.47,.04,4.93,.05,7.4,0,.31-.02,.63-.03,.94-2.75,1.4-3.89-1.05-5.27-2.41-10.26-10.11-20.4-20.34-30.61-30.51-1.18-1.18-2.2-2.55-3.85-3.33-1.61,.81-.46,2.98-1.86,3.86-.06,2.57-.13,5.14-.19,7.72-1.11-7.81-.73-15.66-.79-23.51Z"/>
  <path class="cls-60" d="M445.13,181.28v-5.72c2.45-.28,3.58,1.51,4.9,2.82,10.77,10.73,21.5,21.5,32.28,32.23,1.27,1.26,2.26,3.01,4.4,3.05,0,2.47,0,4.94,0,7.41-12.04-11.89-24.09-23.77-36.11-35.67-1.65-1.63-3.25-3.28-5.48-4.12Z"/>
  <path class="cls-186" d="M14.27,280.36c2.21,.84,3.85,2.44,5.48,4.08,10.61,10.65,21.23,21.28,31.89,31.88,1.25,1.25,2.22,3.07,4.45,2.84,0,0-.06,.01-.06,.01,.82,3.03,.23,6.12,.35,9.18,.13,3.1-1.49,2.9-3.51,1.7-.53-.32-.99-.74-1.42-1.18-12.39-12.46-25.03-24.68-37.18-37.39,0-3.39,0-6.79,0-10.18,0-.31,0-.62,0-.93Z"/>
  <path class="cls-9" d="M14.28,291.48c2.14,.04,3.13,1.79,4.4,3.05,11.1,11.05,22.15,22.14,33.25,33.18,.92,.91,1.71,2.7,3.21,2.11,1.56-.62,.71-2.45,.79-3.74,.14-2.3,.08-4.6,.11-6.9,1.19,7.72,.73,15.5,.83,23.26-2.14-.05-3.14-1.8-4.41-3.07-10.15-10.09-20.28-20.2-30.36-30.36-2.39-2.41-4.86-4.68-7.8-6.4-.02-2.16-.03-4.31-.05-6.47,0-1.55,.02-3.1,.02-4.65Z"/>
  <path class="cls-200" d="M55.85,249.77c-2.03-.85-3.61-2.28-5.14-3.82-10.65-10.69-21.32-21.37-32.02-32.01-1.27-1.26-2.27-3.02-4.41-3.06-.02-2.48-.03-4.95-.05-7.43,.03-1.23,.06-2.46,.1-3.69,2.13,.08,3.12,1.83,4.39,3.09,10.69,10.64,21.35,21.3,31.99,31.99,1.53,1.54,3.11,2.97,5.14,3.81,0,3.71,0,7.41,0,11.12Z"/>
  <path class="cls-108" d="M338.51,59.84c-.06-2.14-1.82-3.13-3.09-4.41-11.21-11.26-22.46-22.47-33.67-33.73-1.27-1.27-3.02-2.27-3.08-4.41,.32-.02,.63-.05,.95-.07,2.47,0,4.94,0,7.41,0,.31,.04,.62,.08,.92,.12,.82,2.04,2.24,3.61,3.78,5.14,11.19,11.15,22.36,22.31,33.5,33.52,.89,.89,2.7,1.64,1.92,3.24-.58,1.19-2.25,.46-3.4,.79-1.75-.06-3.5-.13-5.25-.19Z"/>
  <path class="cls-183" d="M444.28,334.99c-.03-5.68-.3-11.38,.67-17.02,.08,1.67,.17,3.34,.25,5.02-.04,3.09-.08,6.17-.12,9.26-.07,.97,.14,2.03-.8,2.75Z"/>
  <path class="cls-132" d="M371.68,243.28c.37,3.71,.74,7.41,.26,11.14-1.27,1.06-2.3,.27-3.3-.46-1.12-.82-2.05-1.86-3.03-2.84-37.58-37.58-75.17-75.14-112.69-112.78-1.64-1.65-4.77-2.86-3.34-6.28,3.73-.48,7.44-.12,11.15,.26,1.57,.34,2.68,1.29,3.8,2.42,34.8,35.03,69.72,69.94,104.74,104.74,1.13,1.12,2.08,2.23,2.41,3.8Z"/>
  <path class="cls-150" d="M249.57,132.05c-.04,1.98,1.5,2.96,2.67,4.13,38.51,38.53,77.03,77.05,115.56,115.56,1.17,1.17,2.15,2.72,4.13,2.68,.14,4.72,.41,9.45-.93,14.07-1.18-3.66-4.09-5.92-6.68-8.49-12.86-12.78-25.66-25.63-38.49-38.45-1.63-1.62-3.13-3.4-5.31-4.36-2.39-1.63-3.37-4.33-4.94-6.58-6.93-9.97-15.32-18.38-25.89-24.51-1.56-.91-3.34-1.63-4.32-3.34-.52-2.21-2.04-3.73-3.56-5.26-13.46-13.46-26.96-26.89-40.34-40.43-1.78-1.8-4.1-2.6-5.99-4.11,4.63-1.32,9.37-1.08,14.1-.92Z"/>
  <path class="cls-45" d="M371.68,243.28c-36.98-36.99-73.97-73.98-110.95-110.96,5.34,.28,10.64,.79,15.75,2.52,30.93,30.86,61.84,61.74,92.68,92.7,1.69,5.11,2.28,10.4,2.52,15.75Z"/>
  <path class="cls-115" d="M129.1,250.71c-.14-4.11-.4-8.23,.88-12.24,1.48,3.26,3.88,5.77,6.4,8.26,12.73,12.6,25.35,25.3,38.03,37.95,1.52,1.51,2.88,3.28,5.22,3.62,2,1.13,2.79,3.23,3.9,5.04,6.87,11.24,15.87,20.3,27.2,27.03,1.83,1.09,3.9,1.9,4.96,3.97,.22,2.19,1.84,3.46,3.24,4.86,13.74,13.81,27.65,27.46,41.22,41.43,1.6,1.64,3.82,1.86,5.35,3.37-4,1.29-8.11,1.02-12.21,.89-2.46-1.66-4.18-4.08-6.24-6.14-37.29-37.24-74.56-74.51-111.8-111.8-2.06-2.06-4.48-3.78-6.14-6.24Z"/>
  <path class="cls-73" d="M129.1,250.71c2.07,.78,3.66,2.21,5.2,3.75,38.39,38.42,76.8,76.83,115.23,115.23,1.55,1.54,2.97,3.13,3.76,5.2-2.79,.56-5.57,.33-8.35-.06-2.42-1.48-3.98-3.84-5.93-5.79-34.71-34.66-69.39-69.34-104.05-104.05-1.95-1.95-4.31-3.53-5.8-5.93-.39-2.78-.61-5.56-.06-8.35Z"/>
  <path class="cls-195" d="M369.15,227.53c-1.99,.08-2.95-1.48-4.12-2.65-28.65-28.63-57.29-57.27-85.92-85.92-1.17-1.17-2.73-2.13-2.64-4.13,4.84,.5,9.44,1.86,13.87,3.84,2.74,1.58,4.4,4.26,6.58,6.41,22.21,21.93,43.93,44.35,66.41,66.02,.77,.75,1.43,1.61,1.98,2.54,2.01,4.43,3.29,9.05,3.85,13.88Z"/>
  <path class="cls-59" d="M129.16,259.06c2.05,.81,3.63,2.23,5.17,3.77,35.59,35.63,71.21,71.24,106.83,106.83,1.54,1.54,2.96,3.12,3.78,5.17-1.56-.05-3.11-.11-4.67-.16-2.56-.08-4.45-1.21-6.31-3.08-33.76-33.95-67.62-67.81-101.57-101.57-1.87-1.86-2.97-3.75-3.08-6.31-.05-1.55-.11-3.11-.16-4.66Z"/>
  <path class="cls-29" d="M129.32,263.71c.57,2.3,2.17,3.79,3.8,5.42,34.38,34.32,68.72,68.67,102.93,103.16,1.35,1.36,3.06,1.2,4.22,2.38-4.37-.17-8.71-.55-12.93-1.82-2.4-3.03-5.12-5.75-7.85-8.48-26.63-26.61-53.26-53.24-79.87-79.87-2.73-2.73-5.45-5.45-8.48-7.85-1.1-4.24-1.76-8.55-1.82-12.94Z"/>
  <path class="cls-143" d="M365.3,213.65c-3.07-1.82-5.61-4.25-8.11-6.76-20.01-20.06-40.04-40.09-60.1-60.1-2.51-2.5-4.94-5.04-6.75-8.12,6.59,1.83,12.77,4.55,18.53,8.24,15.39,16.74,31.47,32.8,48.19,48.2,3.66,5.77,6.41,11.95,8.24,18.53Z"/>
  <path class="cls-103" d="M219,370.94c-3.85-.75-7.58-1.9-11.12-3.61-23.2-24.28-46.94-48.03-71.23-71.22-1.74-3.53-2.85-7.27-3.63-11.12,1.34-1.2,2.57-.55,3.74,.28,1.01,.71,1.85,1.62,2.72,2.49,25.58,25.57,51.17,51.13,76.68,76.76,1.65,1.66,4.69,3.06,2.83,6.42Z"/>
  <path class="cls-147" d="M219,370.94c.3-2.17-1.23-3.34-2.54-4.65-26.26-26.26-52.53-52.52-78.79-78.79-1.3-1.3-2.49-2.82-4.65-2.52-.95-2.71-1.72-5.45-1.89-8.34,2.16-.3,3.36,1.18,4.67,2.49,29.67,29.68,59.35,59.36,89.03,89.03,1.31,1.31,2.8,2.51,2.5,4.67-2.88-.18-5.64-.94-8.34-1.91Z"/>
  <path class="cls-35" d="M136.65,296.11c2.47,.29,4.13,1.9,5.78,3.55,20.62,20.64,41.25,41.27,61.9,61.9,1.66,1.65,3.26,3.3,3.56,5.78-4.28-1.2-8.31-2.98-12.06-5.39-18.01-17.85-35.89-35.83-53.82-53.77-2.38-3.76-4.17-7.78-5.36-12.07Z"/>
  <path class="cls-124" d="M353.19,111.71c1.46-2.55,3.19-4.87,5.77-6.41,2.25-1.25,3.43,.59,4.64,1.79,11.15,11.04,22.24,22.14,33.28,33.28,1.2,1.21,3.05,2.38,1.8,4.63-1.57,2.55-3.75,4.4-6.45,5.65-13.16-12.83-26.08-25.92-39.04-38.95Z"/>
  <path class="cls-168" d="M369,280.35c-1.12,3.09-.62,6.63-2.58,9.5-2.56-.19-4.01-2.12-5.61-3.72-8.5-8.44-16.94-16.94-25.43-25.38-1.55-1.54-2.95-4.45-5.49-.83-.53,.75-1.18-.44-1.54-1.09-.72-5.06-.67-10.12-.06-15.18,.37-1.19,1.1-1.78,2.41-1.42,1.23,.33,2.25,1.01,3.13,1.87,11.38,11.19,22.65,22.5,33.87,33.84,.67,.68,1,1.53,1.3,2.41Z"/>
  <path class="cls-125" d="M179.28,288.46c-2.49,2.39-3.21-.68-4.17-1.63-13.83-13.65-27.52-27.45-41.32-41.13-2.09-2.07-4.47-3.79-3.81-7.23,0-2.19-.18-4.4,.96-6.41,12.51,12.31,24.83,24.81,37.26,37.19,1.86,1.85,3.63,3.8,6.3,4.52,2.34,4.66,5.08,9.18,4.77,14.69Z"/>
  <path class="cls-125" d="M265.49,374c-3.47,.72-5.15-1.74-7.21-3.82-13.69-13.79-27.48-27.47-41.12-41.3-.94-.95-4.04-1.68-1.59-4.15,5.09,1.02,10.25,1.79,14.68,4.82,.56,2.58,2.47,4.2,4.21,5.94,11.12,11.14,22.26,22.25,33.36,33.4,1.28,1.29,2.91,2.35,3.37,4.3-1.79,1.05-3.76,.83-5.7,.82Z"/>
  <path class="cls-139" d="M214.08,137.56c3.33-1.36,6.72-2.52,10.35-2.71,1.11-.56,1.7,.3,2.3,.92,11.05,11.5,22.55,22.55,33.71,33.93,3.33,3.4,3.27,3.98,.12,6.13-5.09,.35-10.19,.57-15.26-.13-1-.47-2.21-.94-.78-2.22,.91-.81,2.36-.52,3.79-1.55-11.43-11.71-22.94-22.94-34.24-34.38Z"/>
  <path class="cls-3" d="M369,280.35c-11.46-11.33-22.93-22.65-34.38-34-1.64-1.63-3.23-3.29-5.57-3.93-3.37-3.52-2.71-8.3-3.94-12.49,.75-2.09,2.11-1.91,3.62-.92,1.3,.84,2.32,2.01,3.4,3.09,12.09,12.02,24,24.21,36.26,36.06,1.95,1.88,2.46,3.73,1.72,6.15,.09,2.09-.12,4.13-1.11,6.03Z"/>
  <path class="cls-2" d="M132.75,223.56c.04-2.24,.7-4.31,1.73-6.27,2.7-1.36,3.95,.94,5.35,2.32,8.42,8.28,16.71,16.67,25.08,24.99,1.9,1.89,3.51,4.89,6.99,2.41,.07-.05,.54,.66,.73,1.09,.73,4.54,.73,9.08,.02,13.61-1.62,2.91-3.36,1.22-4.82-.05-2.91-2.52-5.51-5.37-8.23-8.09-8.06-8.05-16.13-16.08-24.15-24.17-1.58-1.59-3.66-3.05-2.71-5.86Z"/>
  <path class="cls-2" d="M286.7,369.48c-1.97,1.07-4.04,1.77-6.31,1.75-2.36,.92-3.77-.67-5.16-2.06-10.76-10.7-21.53-21.4-32.17-32.24-1.41-1.44-4.01-3.14-.92-5.54,4.53-.82,9.06-.71,13.59-.11,.53,.26,1.56,.7,1.28,1.07-2.36,3.1,.23,4.56,1.95,6.29,8.46,8.49,16.99,16.93,25.4,25.48,1.38,1.41,3.72,2.64,2.34,5.36Z"/>
  <path class="cls-142" d="M214.08,137.56c2.09,.09,3.2,1.67,4.49,2.95,9.57,9.55,19.15,19.09,28.65,28.7,1.11,1.12,3.38,2.02,2.65,3.86-.62,1.56-2.79,.42-4.21,.79-.57,.15-1.1,.47-1.64,.71-1.07,1.41-2.5,1.26-3.97,.92-10.92-10.83-21.91-21.6-32.54-32.73-.63-.66-1.23-1.39-1.49-2.31,2.45-1.63,5.22-2.36,8.06-2.91Z"/>
  <path class="cls-58" d="M329.41,259.98c1.34-1.09,.24-3.01,1.82-4.73,11.77,11.57,23.48,23.08,35.19,34.59-.48,2.88-1.35,5.62-2.88,8.12-2.79,.73-4.24-1.36-5.82-2.92-6.91-6.79-13.72-13.68-20.58-20.53-2.9-2.89-5.61-6.01-9.44-7.79-.27-2.46-.15-4.83,1.71-6.75Z"/>
  <path class="cls-201" d="M241.24,332.27c-.02,1.58,1.11,2.46,2.08,3.43,11.08,11.08,22.16,22.16,33.24,33.24,1.09,1.09,2.12,2.26,3.84,2.29-2.94,1.23-6,1.91-9.19,1.94-5.41-4.11-9.77-9.31-14.59-14.03-8.12-7.96-16.14-16.04-24.12-24.14-1.22-1.23-3.55-2.23-2.09-4.74,3.82-.44,7.69-1.13,10.85,2.01Z"/>
  <path class="cls-83" d="M189.09,148.68c2.52-2.06,5.39-3.48,8.45-4.56,1.64-.93,2.55,.22,3.52,1.23,8.76,9.11,17.86,17.88,26.71,26.9,1.25,1.27,2.96,2.38,2.54,4.62-2.7,2.94-6.26,3.72-10.02,3.99-10.23-10.31-20.63-20.45-30.69-30.93-.32-.33-.44-.8-.51-1.26Z"/>
  <path class="cls-206" d="M353.19,111.71c1.55-.01,2.5,1.01,3.48,1.99,11.17,11.18,22.34,22.35,33.51,33.52,.97,.97,2.09,1.86,2.05,3.44-2.41,2.03-5.21,3.17-8.32,3.6-10.86-11.93-22.25-23.33-34.19-34.18,.42-3.09,1.59-5.88,3.47-8.37Z"/>
  <path class="cls-201" d="M132.75,223.56c.03,1.71,1.17,2.76,2.27,3.85,11.09,11.08,22.18,22.17,33.27,33.26,.97,.97,1.85,2.11,3.43,2.09,1.95,3.39,2.85,6.97,2.01,10.87-1.84,1.53-2.84-.23-3.77-1.16-12.58-12.49-25.1-25.04-37.64-37.57-.8-.8-1.32-1.69-1.37-2.83-.08-2.98,.69-5.78,1.81-8.5Z"/>
  <path class="cls-171" d="M142.01,308.18c2.12,.69,3.69,2.14,5.23,3.69,14.94,14.97,29.89,29.92,44.86,44.86,1.55,1.54,2.99,3.12,3.72,5.22-17.62-8.14-31.57-20.7-43.16-36.03-4.17-5.51-8.13-11.21-10.65-17.74Z"/>
  <path class="cls-194" d="M230.12,176.65c-8.57-9.73-18.16-18.47-27.27-27.67-1.67-1.69-2.6-4.28-5.31-4.86,2.62-1.69,5.4-3.01,8.48-3.65,2.42,.42,3.13,2.78,4.6,4.23,8.68,8.49,17.23,17.11,25.79,25.72,1.26,1.27,3,2.29,2.98,4.44-2.67,2.76-5.75,3.38-9.27,1.8Z"/>
  <path class="cls-46" d="M189.09,148.68c10.67,10.15,21.8,19.86,30.84,31.61-2.26,3.18-5.53,4.46-9.25,4.9-7.69-9.78-17.31-17.71-25.75-26.78-1.35-1.45-3.72-2.45-3.06-5.16,2.2-1.86,4.42-3.68,7.23-4.56Z"/>
  <path class="cls-20" d="M235.48,132.98c2.5-.22,4.3,.87,6.06,2.64,13.89,14,27.88,27.91,41.78,41.9,1.24,1.24,3.48,2.26,2.15,4.76-4.59,.22-8.49-1.68-12.25-4-.99-1.74-2.25-3.27-3.67-4.7-12.15-12.21-24.48-24.24-36.45-36.63-1.21-1.25-2.92-1.7-4.03-3,2.02-1.14,4.23-.98,6.41-.96Z"/>
  <path class="cls-10" d="M350.65,322.27c-1.41,2.81-3.25,5.29-5.55,7.43-1.9-.51-2.99-2.08-4.28-3.36-7.28-7.24-14.55-14.5-21.78-21.79-1.51-1.53-3.09-2.94-4.95-4.03,.54-3.97,2.79-6.87,5.76-9.34,1.97-.2,3.06,1.24,4.23,2.4,8.18,8.12,16.34,16.27,24.45,24.47,1.12,1.13,2.8,2.12,2.11,4.22Z"/>
  <path class="cls-47" d="M181.86,153.24c8.1,9.42,17.41,17.63,25.99,26.58,1.36,1.41,3.14,2.59,2.8,4.96-1.53,3.02-3.75,5.07-7.34,5.17-8.63-8.87-17.48-17.52-26.17-26.35-1.3-1.32-3.36-2.36-2.71-4.83,2.12-2.32,4.62-4.12,7.42-5.52Z"/>
  <path class="cls-83" d="M359.87,306.41c-1.01,3.1-2.52,5.93-4.55,8.49-1.32-.2-2.13-1.18-2.99-2.04-9.7-9.65-19.33-19.37-29.08-28.98-.33-3.15,.87-5.82,2.55-8.35,1.59-1.54,3.12-1.03,4.48,.27,10,9.64,19.62,19.66,29.57,29.35,.33,.33,.29,.83,.02,1.26Z"/>
  <path class="cls-106" d="M162.39,169.86c1.43-2.19,3.32-3.91,5.44-5.4,1.66-.66,2.62,.55,3.56,1.48,8.42,8.32,16.81,16.69,25.12,25.12,.87,.88,1.65,1.84,1.73,3.17-.92,3.13-3.1,5.05-6.03,6.24-1.9,.23-3.19-.9-4.39-2.09-7.96-7.87-15.86-15.78-23.73-23.73-1.28-1.29-2.75-2.62-1.69-4.78Z"/>
  <path class="cls-106" d="M339.53,336.17c-1.48,2.12-3.22,3.99-5.39,5.44-2.16,1.06-3.48-.4-4.77-1.68-7.93-7.85-15.83-15.74-23.68-23.68-1.19-1.2-2.34-2.46-2.17-4.36,1.11-2.99,3.08-5.11,6.15-6.13,2.07,.12,3.24,1.66,4.53,2.94,7.66,7.61,15.3,15.23,22.88,22.92,1.21,1.23,3.13,2.24,2.45,4.55Z"/>
  <path class="cls-88" d="M323.7,284.07c.58,.17,1.34,.15,1.71,.52,10.04,10.03,20.5,19.65,29.91,30.3-1.07,2.76-2.66,5.21-4.67,7.38-9.67-10.78-20.11-20.8-30.57-30.79-.2-3.16,.35-5.95,3.62-7.41Z"/>
  <path class="cls-157" d="M359.87,306.41c-9.74-9.6-19.45-19.22-29.24-28.78-1.06-1.03-1.8-3.22-4.05-1.9-1.45-3.25-.25-5.9,1.9-8.34,2.22-1.69,3.3,.24,4.54,1.47,8.47,8.44,16.93,16.89,25.36,25.37,1.53,1.54,3.12,2.94,5.16,3.74-.99,2.92-1.73,5.94-3.67,8.44Z"/>
  <path class="cls-118" d="M370.11,274.32c-.23-1.61-.08-3.08-1.58-4.54-13.02-12.73-25.85-25.64-38.8-38.43-1.04-1.03-1.77-3.26-4.04-1.94-3.02-3.77-5.01-7.95-5.05-12.89,2.41-.2,3.46,1.77,4.82,3.13,13.62,13.57,27.19,27.19,40.82,40.75,2.33,2.31,5.72,3.89,4.71,8.09,0,1.99,.25,4.02-.89,5.83Z"/>
  <path class="cls-107" d="M339.53,336.17c-9.46-10.46-19.47-20.38-29.86-29.91,.33-2.82,1.39-5.04,4.52-5.6,1.04-.28,1.97-.56,2.93,.44,9.22,9.64,19.24,18.5,27.98,28.61-1.69,2.3-3.16,4.79-5.57,6.46Z"/>
  <path class="cls-3" d="M229.06,133.94c1.48,.16,2.8,.05,4.13,1.4,12.51,12.78,25.17,25.42,37.77,38.12,1.16,1.17,2.73,2.13,2.69,4.12-4.53,1.05-8.7,.47-12.3-2.7,2.45-2.47-.64-3.21-1.58-4.17-10.04-10.23-20.22-20.32-30.34-30.48-1.73-1.73-3.34-3.59-5-5.38,1.39-1.06,3.02-.92,4.63-.91Z"/>
  <path class="cls-136" d="M357.07,195.12c-2.5-.21-4.16-1.79-5.82-3.44-12.97-12.99-25.95-25.97-38.94-38.94-1.66-1.66-3.24-3.32-3.44-5.82,20.97,11.16,37.01,27.25,48.19,48.2Z"/>
  <path class="cls-107" d="M197.73,194.31c-9.53-10.38-19.44-20.38-29.9-29.84,1.9-2.25,4.01-4.25,6.61-5.69,7.98,9.35,17.24,17.45,25.7,26.33,1.24,1.3,3.01,2.25,3.11,4.37-.42,3.24-2.41,4.68-5.52,4.83Z"/>
  <path class="cls-116" d="M171.59,247.01c-1.04,4.01-2.52,3.5-5.06,.9-9.08-9.33-18.36-18.48-27.59-27.67-1.28-1.27-2.35-2.91-4.46-2.95,.43-2.97,1.42-5.74,2.98-8.31,1.48,.22,2.36,1.34,3.34,2.29,10.43,10.12,20.26,20.84,31.08,30.56,.34,.3,.5,.77,.66,1.2,.3,1.48,.46,2.92-.95,3.98Z"/>
  <path class="cls-116" d="M286.7,369.48c-.03-2.12-1.69-3.18-2.96-4.45-9.19-9.22-18.32-18.5-27.65-27.57-2.62-2.55-3.08-4.02,.9-5.06,1.06-1.4,2.49-1.24,3.96-.96,3.56,2.45,5.95,6.08,9.01,9.05,7.38,7.13,14.56,14.46,21.79,21.74,1.27,1.28,2.87,2.35,3.27,4.31-2.52,1.72-5.48,2.17-8.33,2.94Z"/>
  <path class="cls-190" d="M398.69,145.01c.04-1.59-1.13-2.45-2.09-3.41-11.4-11.41-22.8-22.81-34.21-34.21-.97-.97-1.83-2.13-3.42-2.09,1.75-1.89,3.8-3.3,6.3-3.99,1.24,.34,2.13,1.2,3,2.07,10.78,10.77,21.56,21.55,32.33,32.33,.87,.87,1.74,1.75,2.07,3-.7,2.5-2.07,4.57-3.98,6.3Z"/>
  <path class="cls-93" d="M349.72,120.09c1.67-1.1,2.48,.28,3.42,1.22,9.85,9.84,19.7,19.69,29.55,29.55,.93,.93,2.33,1.73,1.23,3.41-4.09,1.38-8.19,1.58-12.33,.23,1.29-1.15,1.88-2.14,.27-3.71-6.29-6.14-12.5-12.35-18.64-18.64-1.58-1.62-2.57-.98-3.72,.28-1.34-4.14-1.19-8.25,.23-12.34Z"/>
  <path class="cls-62" d="M147.69,188.7c.82-2.13,2.15-3.94,3.69-5.6,10.45,10.07,20.54,20.51,30.91,30.67-.32,2.81-1.19,5.32-3.83,6.83-1.94,.09-3.05-1.29-4.23-2.46-8.18-8.12-16.34-16.26-24.44-24.46-1.3-1.32-3.33-2.51-2.11-4.98Z"/>
  <path class="cls-202" d="M405.11,123.79c.4,3.24,.7,6.47-.64,9.59-1.67-.09-2.88-1.07-3.98-2.16-9.53-9.46-19.11-18.87-28.44-28.53-.85-.88-1.72-1.78-2.11-3,3.32-1.55,6.79-1.2,10.27-.81,8.49,8.11,16.8,16.4,24.9,24.91Z"/>
  <path class="cls-178" d="M295.02,366.54c-11.02-9.93-21.1-20.82-31.63-31.25-.83-.82-1.2-2.1-1.78-3.17,1.78-2.53,4.43-2.29,7.02-2.23,9.62,11.32,20.68,21.25,31.08,31.82,.64,.65,1.44,1.16,1.81,2.04-1.94,1.46-4.12,2.35-6.5,2.78Z"/>
  <path class="cls-178" d="M171.86,242.38c-1.08-.59-2.37-.97-3.19-1.81-10.41-10.52-21.29-20.58-31.21-31.59,.43-2.38,1.34-4.56,2.77-6.51,9.01,8.75,17.78,17.74,26.68,26.6,2.26,2.26,4.55,4.48,7.16,6.34,.22,2.63-.57,4.93-2.21,6.97Z"/>
  <path class="cls-209" d="M328.99,346.1c-.86,2.11-3.17,2.39-4.64,3.73-1.59,1.04-2.67-.1-3.6-1.02-8.69-8.53-17.31-17.13-25.83-25.83-.76-.78-1.37-1.68-1.41-2.84,.87-3,3.06-4.37,5.97-4.86,9.13,9.11,18.25,18.24,27.36,27.37,.98,.98,1.97,1.97,2.16,3.44Z"/>
  <path class="cls-31" d="M369.94,99.69c1.93,0,2.31,1.86,3.35,2.88,10.42,10.24,20.79,20.53,31.18,30.81-.05,1.96-.59,3.76-1.8,5.34-8.49-7.11-15.84-15.4-23.7-23.16-4.68-4.63-9.75-8.91-13.71-14.25,1.4-1,2.91-1.67,4.68-1.62Z"/>
  <path class="cls-7" d="M293.89,319.79c7.12,8.76,15.7,16.09,23.53,24.16,2.09,2.16,3.76,4.95,6.93,5.88-1.27,1.83-3.09,2.92-5.06,3.82-2.09,.68-3.09-.99-4.22-2.1-7.96-7.87-15.86-15.78-23.75-23.73-1.39-1.4-2.95-2.79-2.55-5.11,1-2.21,2.57-3.42,5.12-2.92Z"/>
  <path class="cls-65" d="M289.28,322.63c.33,.85,.43,1.92,1.02,2.51,9.65,9.51,18.76,19.58,28.98,28.52-1.03,1.33-2.46,2.07-3.99,2.65-2.25,1.18-3.87-.21-5.26-1.55-8.14-7.89-16.19-15.86-24.01-24.05-1.34-1.41-2.68-2.99-2.63-5.19,1.3-2.31,3.21-3.39,5.89-2.88Z"/>
  <path class="cls-71" d="M181.8,213.66c-2.96-1.22-4.9-3.68-7.07-5.84-6.89-6.85-13.76-13.72-20.6-20.61-1.17-1.17-2.73-2.13-2.74-4.1,.87-1.86,2.07-3.47,3.66-4.78,9.59,9.4,19.02,18.97,28.51,28.48,.65,.65,1.25,1.35,1.53,2.25,0,2.32-1.27,3.72-3.29,4.6Z"/>
  <path class="cls-148" d="M162.39,169.86c.03,1.51,.96,2.52,1.95,3.51,8.24,8.23,16.48,16.47,24.71,24.71,.88,.88,1.76,1.72,3.12,1.7,.13,2.66-1.63,4.03-3.61,5.23-2.13,.38-3.44-1.01-4.73-2.3-8.05-7.98-16.06-15.99-24.03-24.04-1.03-1.04-2.43-2.01-1.92-3.86,1.17-1.96,2.65-3.63,4.51-4.95Z"/>
  <path class="cls-148" d="M328.99,346.1c-9.3-9.22-18.59-18.43-27.89-27.65-.78-.77-1.49-1.57-1.47-2.76,.13-2.93,2.12-3.7,4.56-3.96-.01,1.55,1.02,2.5,2,3.48,8.15,8.14,16.3,16.28,24.43,24.44,.99,1,2,1.92,3.52,1.96-1.24,2.04-3.3,3.15-5.15,4.5Z"/>
  <path class="cls-54" d="M349.5,132.42c.31-1.14-.42-2.74,.78-3.39,1.4-.76,2.12,.83,2.92,1.62,6.75,6.68,13.46,13.39,20.14,20.14,.79,.8,2.38,1.51,1.64,2.91-.65,1.22-2.24,.48-3.38,.79-11.03-1.54-20.56-11.06-22.09-22.07Z"/>
  <path class="cls-19" d="M142.05,198.7c.51-2.02,1.45-3.81,2.86-5.36,10.47,10.02,20.57,20.42,30.81,30.68,.55,.55,.98,1.19,1.22,1.95,.15,1.94-.17,3.69-2.02,4.78-2.66,.34-4.29-1.43-5.91-3.03-8.32-8.22-16.58-16.5-24.81-24.81-1.12-1.13-2.76-2.13-2.14-4.21Z"/>
  <path class="cls-19" d="M310.65,359.08c-1.56,1.38-3.33,2.38-5.37,2.85-2.27,.59-3.29-1.26-4.52-2.47-8.08-7.99-16.11-16.02-24.11-24.09-1.71-1.72-3.67-3.38-3.44-6.21,1.03-1.93,2.79-2.24,4.74-2.13,1.54,.47,2.53,1.67,3.6,2.75,9.7,9.77,19.59,19.35,29.1,29.3Z"/>
  <path class="cls-25" d="M176.25,225.7c-10.07-9.97-20.14-19.94-30.22-29.91-.69-.68-1.09-1.47-1.12-2.45,.53-1.78,1.43-3.35,2.78-4.64,.17,.58,.16,1.35,.54,1.72,10.05,9.98,19.57,20.5,30.28,29.81,.61,2.39-.6,4.02-2.26,5.47Z"/>
  <path class="cls-110" d="M157.88,174.81c9.45,9.58,18.88,19.16,28.37,28.7,.48,.48,1.36,.58,2.05,.85,.3,2.65-.75,4.31-3.49,4.69-10.17-9.04-19.37-19.05-29-28.63-.48-.48-.52-1.39-.77-2.09,.64-1.42,1.51-2.66,2.85-3.52Z"/>
  <path class="cls-85" d="M273.64,329.4c.5,.95,.81,2.09,1.53,2.81,9.99,9.95,19.55,20.34,30.1,29.73-1.03,1.06-2.3,1.64-3.75,1.82-1.57,.01-2.49-1.06-3.48-2.04-8.95-8.95-17.89-17.9-26.85-26.84-1.23-1.22-2.43-2.41-2.16-4.35,1.2-1.75,2.67-2.41,4.61-1.13Z"/>
  <path class="cls-109" d="M142.05,198.7c9.37,10.56,19.77,20.11,29.72,30.11,.72,.73,1.86,1.04,2.81,1.54,.63,1.78,.37,3.35-1.12,4.62-1.42,1.01-2.21-.04-3.09-.92-9.47-9.48-18.95-18.96-28.43-28.43-.89-.89-1.71-1.79-1.71-3.15,.15-1.48,.77-2.72,1.82-3.76Z"/>
  <path class="cls-25" d="M310.65,359.08c-.73-.14-1.73-.03-2.16-.47-10.1-10.26-20.14-20.57-30.19-30.88,1.09-2.47,2.9-3.25,5.44-2.31,6.49,9.84,15.99,16.87,23.87,25.41,2.14,2.32,4.1,5.09,7.68,5.46-1.3,1.34-2.87,2.22-4.64,2.78Z"/>
  <path class="cls-74" d="M405.11,123.79c-6.63-3.86-11.04-10.13-16.48-15.27-3.09-2.92-6.65-5.53-8.42-9.64,12.93,.82,24.06,11.95,24.9,24.91Z"/>
</svg>