<?xml version="1.0" encoding="UTF-8"?>
<svg id="Layer_1" data-name="Layer 1" xmlns="http://www.w3.org/2000/svg" viewBox="0 0 501 501">
  <defs>
    <style>
      .cls-1 {
        fill: #4cae50;
      }
    </style>
  </defs>
  <path class="cls-1" d="M270.43,495h-36.67c-.62-1.3-1.87-.9-2.88-1.01-11.05-1.16-22.04-2.77-32.87-5.31-26.42-6.21-51.15-16.47-73.96-31.2-2.78-1.8-5.2-1.96-8.28-.95-17.07,5.62-34.2,11.07-51.32,16.55-11.98,3.83-23.98,7.62-36.6,11.63,.65-2.06,1.04-3.37,1.48-4.67,8.8-26.23,17.52-52.48,26.49-78.65,1.44-4.21,1.24-7.32-1.43-11.16-21.62-31.1-34.93-65.49-40.12-103.04-.65-4.71-.32-9.61-2.4-14.08v-36.67c1.78-1.81,.85-4.14,1.09-6.21,6.25-55.22,28.31-103.04,66.78-143.24C145.18,18.62,247.8-4.75,336.26,28.64c115.14,43.47,178.85,163.79,150,283.3-22.73,94.14-102.91,166.84-198.95,180.51-5.63,.8-11.4,.74-16.88,2.55Zm61.88-106.09c5.81,.32,12.47-.82,18.84-3.04,33.94-11.88,45.5-28.17,46.46-59.68,.15-5.03-1.84-8.26-6.32-10.41-17.76-8.54-35.22-17.69-53.31-25.54-9.57-4.15-14.87-2.61-21.08,5.78-4.94,6.66-9.84,13.36-14.94,19.9-5.89,7.56-11.58,9.03-20.65,5.56-7.61-2.91-14.95-6.43-22.04-10.41-30.11-16.87-53.1-40.98-70.99-70.23-4.6-7.53-4.4-10.45,1.43-17.19,4.51-5.21,9.31-10.18,13.61-15.56,3.82-4.79,7.68-10.03,4.94-16.66-8.42-20.37-16.31-40.97-25.74-60.91-1.16-2.46-2.88-4.65-5.69-5.25-12.74-2.72-25.48-3.17-36.46,4.94-10.52,7.77-17.75,18.46-22.31,30.75-8.78,23.66-5.86,46.68,3.91,69.36,7.13,16.54,17.52,31.04,28.11,45.4,15.77,21.38,33.66,40.78,53.87,58.1,27.63,23.68,59.82,38.51,94.23,49.05,10.78,3.3,21.7,6.11,34.14,6.03Z"/>
</svg>